<svg width="67" height="12" viewBox="0 0 67 12" fill="none" xmlns="http://www.w3.org/2000/svg">
<path d="M59.0717 5.05882C58.7367 5.29412 58.1783 5.41176 57.5083 5.41176H57.1733H56.8383L57.285 2.35294H57.62H57.8433C58.4017 2.35294 58.8483 2.47059 59.1833 2.58824C59.4067 2.82353 59.63 3.05882 59.63 3.76471C59.63 4.47059 59.4067 4.82353 59.0717 5.05882ZM16.8617 8.94118H11.39L11.725 6.82353H15.1867L15.5217 4.58823H12.1717L12.5067 2.58824H17.9783L16.8617 8.94118ZM62.0867 0.823529C61.1933 0.235294 59.965 0 58.4017 0H54.27L52.7067 8.94118H47.235L47.57 6.82353H50.8083L51.255 4.58823H47.905L48.3517 2.58824H51.7017L52.1483 0H45.225L43.7733 8.47059H41.205L42.7683 0H39.0833L37.6317 8.47059H35.175L36.6267 0H33.0533L31.49 8.94118H26.0183L26.3533 6.82353H29.5917L30.0383 4.58823H26.6883L27.0233 2.58824H30.485L30.9317 0H9.38L8.15167 7.05882L5.80667 0H2.01L0 11.5294H3.57333L4.80167 4.23529L7.14667 11.5294H19.9883L21.5517 2.58824H23.5617L21.9983 11.5294H55.7217L56.7267 5.88235L58.29 11.5294H61.8633L60.1883 6.94118L60.635 6.82353C61.4167 6.58823 62.0867 6.23529 62.5333 5.64706C62.98 5.05882 63.2033 4.23529 63.2033 3.29412C63.2033 2.23529 62.8683 1.41176 62.0867 0.823529Z" fill="#8CC540"/>
<path d="M64.989 10.1177H65.4356C65.5473 10.1177 65.659 10.1177 65.7706 10.1177C65.7706 10 65.7706 10 65.8823 10C65.8823 9.88236 65.8823 9.88236 65.8823 9.76472C65.8823 9.64707 65.8823 9.64707 65.7706 9.52942C65.7706 9.52942 65.659 9.52942 65.5473 9.52942H64.989V10.1177ZM64.7656 11.1765V9.41178L65.4356 9.29413C65.659 9.29413 65.7706 9.29413 65.8823 9.29413C65.8823 9.41178 65.994 9.41178 65.994 9.52942C66.1056 9.52942 66.1056 9.64707 66.1056 9.76472C66.1056 9.88236 66.1056 10 65.994 10.1177C65.994 10.2353 65.7706 10.2353 65.659 10.353C65.7706 10.353 65.7706 10.353 65.7706 10.353C65.8823 10.4706 65.8823 10.4706 65.994 10.5882L66.329 11.0588H65.994L65.7706 10.7059C65.7706 10.5882 65.659 10.5882 65.659 10.4706C65.5473 10.4706 65.5473 10.353 65.5473 10.353C65.4356 10.353 65.4356 10.353 65.4356 10.353C65.324 10.353 65.324 10.353 65.2123 10.353H64.989V11.1765H64.7656Z" fill="#8CC540"/>
<path d="M64.0967 10.2353C64.0967 9.88232 64.2084 9.52938 64.4317 9.29409C64.6551 9.05879 64.9901 8.8235 65.3251 8.8235C66.1067 8.8235 66.6651 9.41174 66.7767 10.1176V10.2353C66.7767 10.9411 66.2184 11.5294 65.4367 11.647C64.7667 11.647 64.0967 11.0588 64.0967 10.2353ZM65.3251 8.58821C64.8784 8.58821 64.5434 8.70585 64.2084 9.05879C63.8734 9.41174 63.7617 9.88232 63.7617 10.3529C63.8734 11.2941 64.5434 12 65.4367 11.8823C66.3301 11.8823 67.0001 11.0588 67.0001 10.1176C67.0001 9.17644 66.2184 8.47056 65.3251 8.58821Z" fill="#8CC540"/>
</svg>
