<svg width="32" height="16" viewBox="0 0 32 16" fill="none" xmlns="http://www.w3.org/2000/svg">
<g clip-path="url(#clip0_1402_33764)">
<path fill-rule="evenodd" clip-rule="evenodd" d="M16.4414 16.1573C16.7938 15.9014 17.0218 15.4955 17.0218 15.0392V1.01221C17.0218 0.555944 16.7938 0.149992 16.4414 -0.105896H30.2326C31.0123 -0.105896 31.6458 0.50043 31.6458 1.24901V14.8024C31.6458 15.551 31.0123 16.1573 30.2326 16.1573H16.4414Z" fill="#636567"/>
<path fill-rule="evenodd" clip-rule="evenodd" d="M16.4048 14.7977C16.4048 15.5489 15.793 16.157 15.0411 16.157H1.39965C0.646047 16.157 0.0351562 15.5489 0.0351562 14.7977V1.20008C0.0351562 0.448894 0.646047 -0.160034 1.39965 -0.160034H15.0411C15.793 -0.160034 16.4048 0.448894 16.4048 1.20008V14.7977Z" fill="#E2A42E"/>
<path fill-rule="evenodd" clip-rule="evenodd" d="M9.16016 8.1863L9.15929 5.25615L9.91203 5.07486V5.45826C9.91203 5.45826 10.107 4.95343 10.5595 4.83632C10.6987 4.80076 10.7692 4.82245 10.7692 4.82245V5.56929C10.7692 5.56929 10.5978 5.56235 10.3741 5.65343C10.0965 5.76446 9.95641 6.00821 9.95641 6.37946L9.95728 7.99807L9.16016 8.1863ZM5.11114 9.14939C5.11114 9.14939 4.98757 8.96289 4.98757 8.30539V6.849L4.59685 6.94268V6.34242L4.98844 6.24961V5.59558L5.79687 5.40474V6.05791L6.36773 5.92173V6.52111L5.79687 6.6573C5.79687 6.6573 5.796 7.85 5.79687 8.13971C5.79687 8.8137 5.97527 8.94381 5.97527 8.94381L5.11114 9.14939ZM7.68063 6.09694C7.42304 6.15593 7.28816 6.40921 7.28207 6.82991L8.06439 6.64255C8.06526 6.62347 8.06526 6.58183 8.06526 6.51591C8.06439 6.1993 7.96693 6.03102 7.68063 6.09694ZM6.47538 7.41022C6.47538 6.89237 6.54848 6.51504 6.70599 6.22445C6.89308 5.88096 7.20027 5.65716 7.64843 5.55481C8.53083 5.35357 8.84845 5.87835 8.83627 6.58096C8.83192 6.83251 8.83279 6.95569 8.83279 6.95569L7.27859 7.32261V7.34776C7.27859 7.83959 7.38127 8.07292 7.69194 8.00613C7.95909 7.94975 8.03393 7.7806 8.05482 7.57329C8.0583 7.53859 8.06004 7.45359 8.06004 7.45359L8.78841 7.27837C8.78841 7.27837 8.79015 7.33822 8.78928 7.40501C8.78232 7.68519 8.70139 8.37826 7.68933 8.61766C6.73122 8.84666 6.47538 8.25855 6.47538 7.41022ZM13.5622 5.68943C13.5318 4.79252 13.7624 4.08124 14.7579 3.85484C15.3932 3.70998 15.6333 3.87566 15.7552 4.03613C15.8727 4.1888 15.9179 4.39524 15.9179 4.68409L15.9188 4.737L15.1391 4.9235C15.1391 4.9235 15.1391 4.81767 15.1391 4.8142C15.1391 4.47157 15.0451 4.34146 14.7971 4.40392C14.5029 4.47851 14.3837 4.75869 14.3837 5.31731C14.3837 5.51595 14.3855 5.55064 14.3855 5.5784C14.3855 6.14483 14.4629 6.40505 14.8014 6.33392C15.0956 6.27234 15.1365 6.01298 15.1408 5.78485C15.1417 5.74928 15.1434 5.63478 15.1434 5.63478L15.9205 5.45089C15.9205 5.45089 15.9214 5.50901 15.9214 5.57233C15.9188 6.31657 15.5289 6.78498 14.7971 6.95586C13.7902 7.19353 13.5936 6.60803 13.5622 5.68943ZM12.3712 6.02235C12.3712 6.02235 12.2163 6.13598 11.9752 6.25308C11.7281 6.37452 11.615 6.52371 11.615 6.75271C11.615 6.95135 11.7394 7.08146 11.963 7.02595C12.2041 6.9661 12.3712 6.7423 12.3712 6.4309V6.02235ZM10.8222 6.94962C10.8222 6.27043 11.2225 6.05617 11.8229 5.80809C12.3625 5.58603 12.3738 5.475 12.3755 5.28157C12.379 5.1185 12.3033 4.97884 12.0344 5.04737C11.7881 5.10982 11.722 5.28851 11.7089 5.43077C11.702 5.5071 11.7037 5.5817 11.7037 5.5817L10.9466 5.75952C10.9466 5.75952 10.9353 5.52705 10.9997 5.31366C11.1207 4.90684 11.4801 4.63361 12.0997 4.49048C12.9046 4.30572 13.1735 4.6579 13.1744 5.20697V6.5055C13.1744 7.13351 13.2919 7.22546 13.2919 7.22546L12.5478 7.40067C12.5478 7.40067 12.4791 7.25755 12.4477 7.13438C12.4477 7.13438 12.285 7.54293 11.7246 7.67478C11.1355 7.81357 10.8222 7.45012 10.8222 6.94962ZM0.873981 11.1824C0.618138 11.1824 0.410156 10.9673 0.410156 10.7019C0.410156 10.6091 0.436263 10.5189 0.484995 10.4417L0.490216 10.4347L0.498918 10.4321L1.59104 10.1658V11.0228L1.57363 11.0263C1.32649 11.0888 1.03062 11.159 0.968834 11.1712C0.938376 11.179 0.906179 11.1824 0.873981 11.1824ZM0.873981 12.3057C0.618138 12.3057 0.410156 12.0914 0.410156 11.8269C0.410156 11.7332 0.436263 11.643 0.484995 11.5658L0.490216 11.558L0.498918 11.5562L1.59104 11.2891V12.1461L1.57363 12.1513C1.32649 12.2137 1.03062 12.284 0.968834 12.2961C0.938376 12.3022 0.906179 12.3057 0.873981 12.3057ZM0.873981 13.3755C0.618138 13.3755 0.410156 13.1613 0.410156 12.8959C0.410156 12.803 0.436263 12.712 0.484995 12.6356L0.490216 12.627L1.59104 12.3589V13.2159L1.57363 13.2203C1.31257 13.2853 1.02192 13.3539 0.968834 13.366C0.938376 13.3721 0.906179 13.3755 0.873981 13.3755ZM0.732484 10.1659V5.49834L1.59139 5.2971V9.96468L0.732484 10.1659ZM2.87147 9.7813C2.87147 10.0519 2.87408 12.2647 2.87408 12.2873C2.87408 12.3497 2.92542 12.4009 2.98808 12.4009C3.05248 12.4009 3.10295 12.3497 3.10295 12.2873C3.10295 12.1971 3.10382 10.2428 3.10382 10.2428L4.4483 11.1423C4.64236 11.2715 4.75723 11.4849 4.75723 11.7148C4.75723 11.7382 4.75723 12.7513 4.75723 13.7454L4.75636 15.567C4.75636 15.567 3.65118 15.5687 3.24827 15.5687C2.45377 15.5687 1.80633 14.9303 1.80633 14.1462L1.80546 9.7813C1.80546 9.49159 2.0439 9.25652 2.3389 9.25652C2.63303 9.25652 2.87147 9.49159 2.87147 9.7813ZM3.62186 6.5061C4.23797 6.36298 4.43551 6.71949 4.43551 7.22866V9.33302L3.61577 9.52386V7.53486C3.61577 7.22433 3.4687 7.16101 3.29205 7.20004C3.05883 7.25122 2.89436 7.51231 2.89436 7.83846V9.20118C2.75338 9.078 2.57064 9.0034 2.36875 9.0034C2.26432 9.0034 2.16599 9.02335 2.07462 9.05979V6.94849L2.85259 6.76546V7.09595C2.85259 7.09595 3.06405 6.63362 3.62186 6.5061ZM15.4114 2.57939C15.166 2.57939 14.965 2.77889 14.965 3.02437C14.965 3.26898 15.166 3.46849 15.4114 3.46849C15.6577 3.46849 15.8579 3.26898 15.8579 3.02437C15.8579 2.77889 15.6577 2.57939 15.4114 2.57939ZM15.4114 3.53181C15.1304 3.53181 14.9015 3.30368 14.9015 3.02437C14.9015 2.74333 15.1304 2.5152 15.4114 2.5152C15.6925 2.5152 15.9214 2.74333 15.9214 3.02437C15.9214 3.30368 15.6925 3.53181 15.4114 3.53181ZM15.3893 2.93815C15.4485 2.93815 15.4816 2.90172 15.4816 2.84274C15.4816 2.77941 15.4555 2.74732 15.3946 2.74732H15.3162V2.93815H15.3893ZM15.224 2.67619H15.4276C15.5086 2.67619 15.5747 2.71696 15.5747 2.82712C15.5747 2.90345 15.5408 2.96244 15.4781 2.97198V2.97372C15.5347 2.97892 15.5651 3.01101 15.5686 3.09429C15.5695 3.13159 15.5703 3.17756 15.5712 3.21399C15.5738 3.24262 15.5869 3.25649 15.5991 3.2643H15.4955C15.4859 3.25302 15.4816 3.23568 15.4798 3.21226C15.4764 3.17669 15.4772 3.14373 15.4755 3.10123C15.4737 3.03704 15.4546 3.00928 15.3911 3.00928H15.3162V3.2643H15.224V2.67619Z" fill="#1A1919"/>
<path fill-rule="evenodd" clip-rule="evenodd" d="M29.124 7.84485C28.9248 7.84485 28.8073 7.9819 28.769 8.256H29.4547V8.20135C29.4573 8.08772 29.4304 8.00011 29.3721 7.93766C29.3146 7.87607 29.2319 7.84485 29.124 7.84485ZM29.2006 9.65081C28.8665 9.65081 28.5949 9.54759 28.3878 9.34027C28.1816 9.13209 28.0772 8.86233 28.0772 8.53011V8.47112C28.0772 8.23952 28.1189 8.03481 28.2016 7.85786C28.2843 7.68004 28.4052 7.54298 28.5636 7.44583C28.722 7.34868 28.91 7.30011 29.1284 7.30011C29.4347 7.30011 29.6766 7.39899 29.8542 7.59676C30.0317 7.79454 30.1204 8.06951 30.1204 8.42341V8.69752H28.769C28.7934 8.82503 28.8464 8.92478 28.9282 8.99764C29.0109 9.06964 29.1171 9.10607 29.2476 9.10607C29.4626 9.10607 29.6305 9.028 29.7515 8.87187L30.0621 9.25267C29.9769 9.37497 29.8576 9.47125 29.7019 9.54325C29.547 9.61525 29.3799 9.65081 29.2006 9.65081ZM26.4403 7.34174L26.4621 7.60804C26.6126 7.40246 26.8206 7.30011 27.0851 7.30011C27.3123 7.30011 27.4819 7.37037 27.5942 7.51176C27.7073 7.65315 27.7648 7.8648 27.7691 8.14844V9.60917H27.0877V8.17793C27.0877 8.06343 27.0651 7.97929 27.0207 7.92551C26.9764 7.87173 26.8954 7.84485 26.7788 7.84485C26.6457 7.84485 26.5473 7.89949 26.4821 8.00792V9.60917H25.8033V7.34174H26.4403ZM24.6755 6.75797C24.6755 6.65648 24.7103 6.57494 24.7799 6.50989C24.8504 6.4457 24.9409 6.41361 25.0523 6.41361C25.1646 6.41361 25.2551 6.4457 25.3247 6.50989C25.3943 6.57494 25.43 6.65648 25.43 6.75797C25.43 6.85772 25.3943 6.941 25.3247 7.00432C25.2551 7.06851 25.1646 7.10147 25.0523 7.10147C24.9409 7.10147 24.8504 7.06851 24.7799 7.00432C24.7103 6.941 24.6755 6.85772 24.6755 6.75797ZM24.7155 9.60917H25.3978V7.34174H24.7155V9.60917ZM23.5799 9.60917H24.2622V6.39105H23.5799V9.60917ZM21.8395 7.34174L21.8621 7.60804C22.0127 7.40246 22.2206 7.30011 22.4852 7.30011C22.7123 7.30011 22.882 7.37037 22.9951 7.51176C23.1065 7.65315 23.1648 7.8648 23.1692 8.14844V9.60917H22.4878V8.17793C22.4878 8.06343 22.4652 7.97929 22.4208 7.92551C22.3764 7.87173 22.2955 7.84485 22.1789 7.84485C22.0457 7.84485 21.9465 7.89949 21.8821 8.00792V9.60917H21.2025V7.34174H21.8395ZM20.1626 8.0192C20.1626 7.7156 20.1138 7.48573 20.0164 7.32873C19.918 7.17173 19.7788 7.09279 19.5978 7.09279C19.2428 7.09279 19.0548 7.3695 19.0348 7.92205L19.033 8.14671C19.033 8.4451 19.08 8.67583 19.1758 8.8363C19.2715 8.99678 19.4133 9.07745 19.6013 9.07745C19.7806 9.07745 19.918 8.99764 20.0146 8.83977C20.1121 8.6819 20.1608 8.45551 20.1626 8.15885V8.0192ZM20.8822 8.14671C20.8822 8.44423 20.8292 8.70706 20.723 8.93692C20.6168 9.16506 20.4654 9.34201 20.2705 9.46518C20.0747 9.58922 19.8519 9.65081 19.6013 9.65081C19.3515 9.65081 19.1296 9.59183 18.9356 9.47212C18.7424 9.35242 18.591 9.18154 18.4831 8.95948C18.3752 8.73742 18.3186 8.4824 18.3125 8.19442V8.02353C18.3125 7.72427 18.3656 7.46058 18.4709 7.23158C18.5762 7.00345 18.7276 6.82736 18.9251 6.70332C19.1218 6.57841 19.3463 6.51683 19.5978 6.51683C19.8458 6.51683 20.0677 6.57841 20.2626 6.70072C20.4584 6.82389 20.6099 6.99824 20.7178 7.22551C20.8257 7.45277 20.8805 7.713 20.8822 8.00619V8.14671Z" fill="white"/>
</g>
<defs>
<clipPath id="clip0_1402_33764">
<rect width="32" height="16" fill="white"/>
</clipPath>
</defs>
</svg>
