<svg width="27" height="16" viewBox="0 0 27 16" fill="none" xmlns="http://www.w3.org/2000/svg">
<path d="M18.7697 16C23.214 16 26.8168 12.4183 26.8168 8C26.8168 3.58172 23.214 0 18.7697 0C14.3254 0 10.7227 3.58172 10.7227 8C10.7227 12.4183 14.3254 16 18.7697 16Z" fill="#E41D2C"/>
<path fill-rule="evenodd" clip-rule="evenodd" d="M8.05487 0C10.4052 0 12.5166 0.990099 13.9906 2.57426H12.7955L12.4369 3.04951H14.3889C14.5085 3.20792 14.628 3.36634 14.7475 3.52475H12.0784L11.7597 4H15.0263C15.106 4.15842 15.2255 4.31683 15.3052 4.51485H11.5207L11.2817 4.9505H15.5044C15.584 5.10891 15.6239 5.26733 15.7036 5.46535H11.1223L11.0028 5.90099H15.8231C15.8629 6.05941 15.9027 6.21782 15.9426 6.41584H10.8435L10.7638 6.85149H16.0223C16.0621 7.0099 16.0621 7.16832 16.0621 7.32673H10.7638L10.7239 7.76238H16.1019C16.1019 7.84158 16.1019 7.92079 16.1019 8C16.1019 8.07921 16.1019 8.15842 16.1019 8.23762H10.6841L10.7239 8.67327H16.0621C16.0621 8.83168 16.0621 8.9901 16.0223 9.14852H10.8036L10.8833 9.58416H15.9426C15.9027 9.74257 15.8629 9.90099 15.8231 10.0594H11.0028L11.1621 10.4951H15.7036C15.6239 10.6931 15.584 10.8911 15.5044 11.0495H11.3215L11.5605 11.4851H15.3052C15.1857 11.6832 15.106 11.8812 14.9865 12.0396H11.8394L12.1182 12.5149H14.7076C14.5881 12.6733 14.4686 12.8713 14.3093 13.0297H12.4768L12.8353 13.4653H13.9507C12.4768 15.0099 10.3654 16 8.05487 16C3.59314 16 0.0078125 12.4356 0.0078125 8C0.0078125 3.56436 3.59314 0 8.05487 0Z" fill="#0082C3"/>
<path fill-rule="evenodd" clip-rule="evenodd" d="M17.019 7.32675H16.9791C16.5409 7.28715 16.0629 7.12873 15.6645 7.36636C15.4255 7.52477 15.4653 7.72279 15.6645 7.92081C16.0629 8.15844 16.4214 8.07923 16.78 8.47527C17.3377 9.26735 16.8198 10.1782 15.9832 10.4555C15.3857 10.5743 14.4296 10.5347 13.832 10.3367L13.9914 9.50497C14.5093 9.62378 14.828 9.70299 15.3458 9.66339C15.8637 9.58418 15.9832 9.10893 15.4255 8.87131C14.9873 8.71289 14.6686 8.59408 14.4296 8.23764C14.2304 7.802 14.3101 7.16834 14.5889 6.8119C15.1466 6.25745 16.4214 6.33666 17.1385 6.45547H17.1783H17.2182L17.019 7.32675Z" fill="#FEFEFE"/>
<path fill-rule="evenodd" clip-rule="evenodd" d="M11.5624 8.03959H12.9169C12.9567 7.64355 12.8771 7.32672 12.4787 7.24751C11.921 7.1683 11.6421 7.52474 11.5624 8.03959ZM11.4031 8.75246V8.83167C11.3633 9.86137 13.0364 9.78216 13.7535 9.38612L13.5941 10.297C12.6779 10.7723 11.1641 10.495 10.6063 9.78216C10.0486 8.99008 10.2478 7.72275 10.8454 7.00988L10.925 6.93068L11.0047 6.85147L11.0844 6.77226C11.5226 6.45543 11.9608 6.37622 12.4787 6.37622C13.9925 6.49503 14.112 7.40592 13.873 8.75246H11.4031Z" fill="#FEFEFE"/>
<path fill-rule="evenodd" clip-rule="evenodd" d="M9.92525 9.66337L9.76591 10.4951H8.80982L8.84966 10.4158V10.3366V10.297V10.2178L8.88949 10.1782V10.099V10.0594L8.84966 10.1386C8.33178 10.6139 7.45537 10.7327 6.85781 10.297C6.18058 9.66337 6.49928 8.67327 7.21634 8.19803L7.33586 8.15842C7.89357 7.9208 8.53096 7.9604 9.12852 7.9604L9.16835 7.9208C9.24803 7.56436 9.04884 7.32674 8.69031 7.28714C8.33178 7.28714 7.37569 7.32674 7.09683 7.48516L7.37569 6.61387C7.85373 6.37625 8.73015 6.37625 9.28786 6.45545C9.92525 6.61387 10.4431 6.9307 10.3236 7.68318L9.92525 9.66337ZM9.00901 8.67327C9.00901 8.63367 9.00901 8.63367 8.92933 8.63367C8.61064 8.59407 8.17243 8.67327 7.89357 8.87129C7.61471 9.10892 7.53504 9.58417 7.93341 9.66337C8.29194 9.70298 8.65047 9.62377 8.84966 9.30694C8.96917 9.10892 8.96917 8.9109 9.00901 8.67327Z" fill="#FEFEFE"/>
<path fill-rule="evenodd" clip-rule="evenodd" d="M19.25 10.4951H20.3256L20.6841 8.35645C20.724 8.19804 20.7638 8.03962 20.8435 7.88121C21.0427 7.56437 21.4809 7.44556 21.8394 7.48517H21.8792V7.44556L21.9191 7.36636V7.28715L21.9589 7.16834C21.9988 7.00992 22.0386 6.8515 22.1183 6.73269L22.1581 6.65348L22.1979 6.57428V6.53467L22.2378 6.49507L22.2776 6.45546H22.2378V6.41586C21.6801 6.33665 21.2817 6.65348 20.963 7.08913L21.0427 6.45546H19.9671L19.25 10.4951Z" fill="#FEFEFE"/>
<path fill-rule="evenodd" clip-rule="evenodd" d="M25.5039 10.2971H25.8226V10.3367H25.7031V10.6139H25.6234V10.3367H25.5039V10.2971Z" fill="#FEFEFE"/>
<path d="M25.5039 10.2971H25.8226V10.3367H25.7031V10.6139H25.6234V10.3367H25.5039V10.2971Z" stroke="#FEFEFE" stroke-width="0.474189"/>
<path fill-rule="evenodd" clip-rule="evenodd" d="M25.8633 10.2971H25.943L26.0625 10.5347L26.182 10.2971H26.2617V10.6139H26.182V10.3763L26.1023 10.6139H26.0226L25.943 10.3763V10.6139H25.8633V10.2971Z" fill="#FEFEFE"/>
<path d="M25.8633 10.2971H25.943L26.0625 10.5347L26.182 10.2971H26.2617V10.6139H26.182V10.3763L26.1023 10.6139H26.0226L25.943 10.3763V10.6139H25.8633V10.2971Z" stroke="#FEFEFE" stroke-width="0.474189"/>
<path fill-rule="evenodd" clip-rule="evenodd" d="M25.2262 6.81191C26.023 7.44557 26.1026 8.63369 25.6644 9.50497C24.9474 10.9307 22.5571 10.9703 21.8799 9.50497C21.4815 8.43567 21.8401 7.04953 22.9555 6.57428C23.6726 6.29705 24.5888 6.33666 25.2262 6.81191ZM23.075 8.99012C23.2742 9.7426 24.1108 9.62379 24.4693 8.99012C24.5888 8.63369 24.6685 8.23765 24.6287 7.84161C24.4295 7.04953 23.5929 7.20794 23.2344 7.84161C23.075 8.19804 22.9953 8.59408 23.075 8.99012Z" fill="#FEFEFE"/>
<path fill-rule="evenodd" clip-rule="evenodd" d="M17.8958 5.54456H18.9714L18.7722 6.45545H19.4495L19.2901 7.32673L18.6129 7.28713L18.2544 9.38614C18.2544 9.58416 18.2942 9.62376 18.4535 9.66337C18.6527 9.70297 18.8917 9.70297 19.0511 9.62376H19.0909L18.9714 10.3366C18.6527 10.5347 18.095 10.5347 17.7365 10.495C17.2186 10.3762 17.0991 10.1782 17.1788 9.66337L17.8958 5.54456Z" fill="#FEFEFE"/>
<path fill-rule="evenodd" clip-rule="evenodd" d="M1.91857 10.4951H0.882812L1.75922 5.54456H3.59172L3.75107 8.51485L4.98601 5.54456H6.85835L5.98194 10.4951H4.94618L5.58357 6.81188H5.54373L4.02993 10.4951H2.83482C2.75515 9.26733 2.71531 8.03961 2.63564 6.81188H2.5958L1.91857 10.4951Z" fill="#FEFEFE"/>
</svg>
