<svg width="93" height="16" viewBox="0 0 93 16" fill="none" xmlns="http://www.w3.org/2000/svg">
<g clip-path="url(#clip0_1402_33799)">
<path fill-rule="evenodd" clip-rule="evenodd" d="M9.59375 14.2933H16.6789V1.71423H9.59375V14.2933Z" fill="#FF5F00"/>
<path fill-rule="evenodd" clip-rule="evenodd" d="M10.0432 8.00385C10.0432 5.45185 11.2526 3.17918 13.136 1.71429C11.7585 0.642956 10.0207 0.00384521 8.1318 0.00384521C3.66006 0.00384521 0.0351562 3.58562 0.0351562 8.00385C0.0351562 12.4221 3.66006 16.0038 8.1318 16.0038C10.0207 16.0038 11.7585 15.3647 13.136 14.2934C11.2526 12.8285 10.0432 10.5556 10.0432 8.00385Z" fill="#EB001B"/>
<path fill-rule="evenodd" clip-rule="evenodd" d="M25.9832 12.9611V12.6506H25.9011L25.8066 12.864L25.7124 12.6506H25.6303V12.9611H25.6881V12.7269L25.7767 12.9286H25.8368L25.9254 12.7262V12.9611H25.9832ZM25.4634 12.9611V12.7035H25.5687V12.6511H25.3008V12.7035H25.406V12.9611H25.4634Z" fill="#231F20"/>
<path fill-rule="evenodd" clip-rule="evenodd" d="M26.2375 8.00385C26.2375 12.4221 22.6124 16.0038 18.1406 16.0038C16.2519 16.0038 14.5139 15.3647 13.1367 14.2934C15.02 12.8285 16.2292 10.5556 16.2292 8.00385C16.2292 5.45185 15.02 3.17918 13.1367 1.71429C14.5139 0.642956 16.2519 0.00384521 18.1406 0.00384521C22.6124 0.00384521 26.2375 3.58562 26.2375 8.00385Z" fill="#F79E1B"/>
<path fill-rule="evenodd" clip-rule="evenodd" d="M42.4103 8.03845C42.4103 7.10333 43.0299 6.33556 44.0439 6.33556C45.0127 6.33556 45.6661 7.07022 45.6661 8.03845C45.6661 9.00667 45.0127 9.74133 44.0439 9.74133C43.0299 9.74133 42.4103 8.97356 42.4103 8.03845ZM46.7702 8.03845V5.37822H45.5984V6.02378C45.2266 5.54533 44.6634 5.24467 43.8973 5.24467C42.3876 5.24467 41.2049 6.41356 41.2049 8.03845C41.2049 9.66356 42.3876 10.8322 43.8973 10.8322C44.6634 10.8322 45.2266 10.5316 45.5984 10.0531V10.6987H46.7702V8.03845ZM86.3356 8.03845C86.3356 7.10333 86.9552 6.33556 87.9692 6.33556C88.9379 6.33556 89.5916 7.07022 89.5916 8.03845C89.5916 9.00667 88.9379 9.74133 87.9692 9.74133C86.9552 9.74133 86.3356 8.97356 86.3356 8.03845ZM92.0062 10.446V10.5296H92.0842C92.102 10.5296 92.1161 10.5262 92.1267 10.5193C92.1375 10.5122 92.1427 10.5016 92.1427 10.4873C92.1427 10.4736 92.1375 10.4633 92.1267 10.4562C92.1161 10.4493 92.102 10.446 92.0842 10.446H92.0062ZM92.0851 10.3873C92.1256 10.3873 92.1571 10.3962 92.1794 10.4142C92.2012 10.432 92.2122 10.4564 92.2122 10.4873C92.2122 10.5133 92.2034 10.5347 92.1859 10.5516C92.1683 10.5682 92.1431 10.5787 92.111 10.5827L92.2149 10.7009H92.1335L92.0372 10.5833H92.0062V10.7009H91.9382V10.3873H92.0851ZM92.0649 10.8084C92.1017 10.8084 92.1359 10.8016 92.1679 10.788C92.1996 10.774 92.2275 10.7551 92.2515 10.7316C92.2756 10.7078 92.2945 10.6798 92.3082 10.648C92.3217 10.616 92.3287 10.5818 92.3287 10.5453C92.3287 10.5089 92.3217 10.4747 92.3082 10.4427C92.2945 10.4107 92.2756 10.3829 92.2515 10.3591C92.2275 10.3353 92.1996 10.3167 92.1679 10.3033C92.1359 10.2896 92.1017 10.2829 92.0649 10.2829C92.0275 10.2829 91.9922 10.2896 91.9596 10.3033C91.927 10.3167 91.8986 10.3353 91.8746 10.3591C91.8507 10.3829 91.8318 10.4107 91.8181 10.4427C91.8046 10.4747 91.7976 10.5089 91.7976 10.5453C91.7976 10.5818 91.8046 10.616 91.8181 10.648C91.8318 10.6798 91.8507 10.7078 91.8746 10.7316C91.8986 10.7551 91.927 10.774 91.9596 10.788C91.9922 10.8016 92.0275 10.8084 92.0649 10.8084ZM92.0649 10.2076C92.113 10.2076 92.158 10.2164 92.2 10.234C92.2423 10.2518 92.2792 10.276 92.3109 10.3067C92.3422 10.3371 92.3672 10.3729 92.3854 10.4142C92.4034 10.4551 92.4126 10.4989 92.4126 10.5453C92.4126 10.5918 92.4034 10.6353 92.3854 10.6762C92.3672 10.7169 92.3422 10.7524 92.3109 10.7831C92.2792 10.814 92.2423 10.838 92.2 10.856C92.158 10.874 92.113 10.8829 92.0649 10.8829C92.0156 10.8829 91.9697 10.874 91.927 10.856C91.8842 10.838 91.8474 10.814 91.8161 10.7831C91.7848 10.7524 91.7601 10.7169 91.7419 10.6762C91.7237 10.6353 91.7146 10.5918 91.7146 10.5453C91.7146 10.4989 91.7237 10.4551 91.7419 10.4142C91.7601 10.3729 91.7848 10.3371 91.8161 10.3067C91.8474 10.276 91.8842 10.2518 91.927 10.234C91.9697 10.2164 92.0156 10.2076 92.0649 10.2076ZM90.6955 8.03845V3.24133H89.5239V6.02378C89.1523 5.54533 88.5889 5.24467 87.8228 5.24467C86.3131 5.24467 85.1302 6.41356 85.1302 8.03845C85.1302 9.66356 86.3131 10.8322 87.8228 10.8322C88.5889 10.8322 89.1523 10.5316 89.5239 10.0531V10.6987H90.6955V8.03845ZM61.3029 6.27978C62.058 6.27978 62.5422 6.74733 62.6662 7.57089H59.8724C59.9963 6.80289 60.4693 6.27978 61.3029 6.27978ZM61.3256 5.24467C59.7484 5.24467 58.6443 6.38 58.6443 8.03845C58.6443 9.73045 59.7934 10.8322 61.4043 10.8322C62.2157 10.8322 62.959 10.6318 63.6127 10.0864L63.038 9.22933C62.5872 9.58556 62.0128 9.786 61.472 9.786C60.7172 9.786 60.03 9.44089 59.8609 8.48356H63.8603C63.8716 8.33889 63.8828 8.19445 63.8828 8.03845C63.8716 6.38 62.8353 5.24467 61.3256 5.24467ZM75.464 8.03845C75.464 7.10333 76.0837 6.33556 77.0979 6.33556C78.0664 6.33556 78.72 7.07022 78.72 8.03845C78.72 9.00667 78.0664 9.74133 77.0979 9.74133C76.0837 9.74133 75.464 8.97356 75.464 8.03845ZM79.824 8.03845V5.37822H78.6523V6.02378C78.2807 5.54533 77.7175 5.24467 76.951 5.24467C75.4415 5.24467 74.2588 6.41356 74.2588 8.03845C74.2588 9.66356 75.4415 10.8322 76.951 10.8322C77.7175 10.8322 78.2807 10.5316 78.6523 10.0531V10.6987H79.824V8.03845ZM68.8512 8.03845C68.8512 9.65245 69.9889 10.8322 71.7239 10.8322C72.535 10.8322 73.0757 10.654 73.6614 10.1976L73.0985 9.26267C72.659 9.57467 72.1972 9.74133 71.6902 9.74133C70.7552 9.73045 70.0678 9.06245 70.0678 8.03845C70.0678 7.01445 70.7552 6.34667 71.6902 6.33556C72.1972 6.33556 72.659 6.50244 73.0985 6.81422L73.6614 5.87911C73.0757 5.42267 72.535 5.24467 71.7239 5.24467C69.9889 5.24467 68.8512 6.42444 68.8512 8.03845ZM83.9473 5.24467C83.2714 5.24467 82.8319 5.55644 82.5278 6.02378V5.37822H81.3674V10.6987H82.539V7.71556C82.539 6.83645 82.9221 6.34667 83.6882 6.34667C83.9248 6.34667 84.1727 6.38 84.4203 6.48022L84.7811 5.38956C84.522 5.28911 84.1839 5.24467 83.9473 5.24467ZM52.5607 5.80133C51.9973 5.434 51.2202 5.24467 50.3639 5.24467C49.0008 5.24467 48.122 5.89022 48.122 6.94756C48.122 7.816 48.7754 8.35022 49.9808 8.51711L50.5328 8.59489C51.1749 8.684 51.479 8.85089 51.479 9.15133C51.479 9.56333 51.051 9.79711 50.2512 9.79711C49.4401 9.79711 48.8542 9.54089 48.4599 9.24067L47.9079 10.142C48.5501 10.6096 49.3611 10.8322 50.2402 10.8322C51.7946 10.8322 52.6959 10.1087 52.6959 9.09578C52.6959 8.16089 51.986 7.67111 50.8144 7.50422L50.2624 7.42622C49.7554 7.35956 49.3501 7.25933 49.3501 6.90333C49.3501 6.51356 49.733 6.27978 50.3751 6.27978C51.0625 6.27978 51.7271 6.536 52.0537 6.73622L52.5607 5.80133ZM67.6681 5.24467C66.9922 5.24467 66.5529 5.55644 66.2486 6.02378V5.37822H65.0882V10.6987H66.2598V7.71556C66.2598 6.83645 66.6429 6.34667 67.4092 6.34667C67.6456 6.34667 67.8937 6.38 68.1413 6.48022L68.5019 5.38956C68.2428 5.28911 67.9047 5.24467 67.6681 5.24467ZM57.6753 5.37822H55.7603V3.76444H54.5774V5.37822H53.4845V6.43578H54.5774V8.86222C54.5774 10.0976 55.0617 10.8322 56.4474 10.8322C56.9544 10.8322 57.5401 10.6764 57.9119 10.4202L57.5741 9.42978C57.2248 9.63022 56.8417 9.73045 56.5376 9.73045C55.9517 9.73045 55.7603 9.374 55.7603 8.83978V6.43578H57.6753V5.37822ZM40.1684 10.6987V7.35956C40.1684 6.10178 39.3571 5.256 38.0503 5.24467C37.3632 5.23356 36.6535 5.44511 36.1578 6.19089C35.786 5.60089 35.2001 5.24467 34.3777 5.24467C33.803 5.24467 33.2398 5.41156 32.8005 6.03489V5.37822H31.6289V10.6987H32.8118V7.74911C32.8118 6.82533 33.33 6.33556 34.1299 6.33556C34.9072 6.33556 35.3015 6.83644 35.3015 7.738V10.6987H36.4844V7.74911C36.4844 6.82533 37.0253 6.33556 37.8024 6.33556C38.6023 6.33556 38.9853 6.83644 38.9853 7.738V10.6987H40.1684Z" fill="#231F20"/>
</g>
<defs>
<clipPath id="clip0_1402_33799">
<rect width="92.4444" height="16" fill="white"/>
</clipPath>
</defs>
</svg>
