<svg width="48" height="16" viewBox="0 0 48 16" fill="none" xmlns="http://www.w3.org/2000/svg">
<g clip-path="url(#clip0_1402_33789)">
<path fill-rule="evenodd" clip-rule="evenodd" d="M0.00390625 5.59601C0.00390625 10.3251 5.64054 10.0886 6.51382 10.4039C7.62527 10.798 7.54588 12.7684 5.00543 12.7684C3.65581 12.7684 2.54436 12.6108 1.27413 12.2167C0.956577 12.1379 0.63902 11.9802 0.321463 11.9014V15.4482C1.27413 15.9211 4.52909 15.9999 5.87871 15.9999C9.37184 15.9999 12.5474 13.6354 11.6741 10.0886C10.8008 6.22655 5.71993 6.62064 5.00543 6.22655C4.13215 5.83246 4.13215 4.72901 5.08482 4.33492C6.35505 3.7832 8.8955 4.33492 10.1657 4.72901C10.5627 4.88665 10.9596 5.04428 11.2772 5.1231V1.73394C10.7215 1.5763 10.4039 1.41867 9.29245 1.18221C7.70466 0.866943 7.06955 0.866943 5.48176 0.866943C2.62375 0.866943 0.00390625 2.75857 0.00390625 5.59601Z" fill="#852164"/>
<path fill-rule="evenodd" clip-rule="evenodd" d="M12.7852 1.65512V15.8423H16.9134V11.5862C16.9928 11.7438 16.9134 11.665 16.9928 11.8226L17.3897 12.532C17.5485 12.8472 17.7073 13.1625 17.8661 13.5566C18.0248 13.9507 18.5012 15.3694 18.5012 15.8423H23.5027C23.4233 15.6847 23.3439 15.3694 23.2645 15.133L22.3119 13.0049C20.3271 8.98517 20.7241 11.1132 22.4706 7.72409C22.7882 7.25118 23.6615 5.43837 23.7409 4.80783H19.0569C18.8981 5.59601 17.3897 8.19699 16.9134 8.59108V0.866943C16.1195 0.866943 13.4203 1.65512 12.7852 1.65512Z" fill="#852065"/>
<path fill-rule="evenodd" clip-rule="evenodd" d="M37.4766 1.5763V15.8423H41.446V0.866943C40.8109 0.866943 38.3498 1.49749 37.4766 1.5763Z" fill="#862064"/>
<path fill-rule="evenodd" clip-rule="evenodd" d="M43.1914 1.5763V15.8423H47.1609V0.866943C46.6845 0.866943 43.6677 1.5763 43.1914 1.5763Z" fill="#852164"/>
<path fill-rule="evenodd" clip-rule="evenodd" d="M24.2188 9.53694V15.8424H28.1882V11.1133C28.1882 8.9064 28.5058 8.03941 30.7287 8.03941V4.72906C30.0142 4.72906 30.6493 4.65024 29.4584 4.72906C28.2676 4.8867 27.3943 4.8867 26.1241 5.67487C25.0126 6.38423 24.2188 7.72413 24.2188 9.53694Z" fill="#862164"/>
<path fill-rule="evenodd" clip-rule="evenodd" d="M31.918 15.8423H35.8874V4.88666H31.918V15.8423Z" fill="#852164"/>
<path fill-rule="evenodd" clip-rule="evenodd" d="M31.9961 1.81279C31.9961 2.44333 32.0755 2.83742 32.5518 3.31032C34.2984 5.04431 37.077 2.44333 35.2511 0.551702C34.0602 -0.709382 31.9961 0.394067 31.9961 1.81279Z" fill="#862165"/>
</g>
<defs>
<clipPath id="clip0_1402_33789">
<rect width="47.1688" height="16" fill="white"/>
</clipPath>
</defs>
</svg>
