<svg width="53" height="16" viewBox="0 0 53 16" fill="none" xmlns="http://www.w3.org/2000/svg">
<g clip-path="url(#clip0_1402_33756)">
<path fill-rule="evenodd" clip-rule="evenodd" d="M18.3945 15.808L21.0093 0.282227H25.2469L22.6322 15.808H18.3945Z" fill="#01549A"/>
<path fill-rule="evenodd" clip-rule="evenodd" d="M37.8689 0.643278C37.0575 0.372479 35.7952 0.0114136 34.0821 0.0114136C29.9346 0.0114136 27.0494 2.08754 26.9592 5.15659C26.9592 7.32298 29.1231 8.58671 30.6559 9.30884C32.369 10.1212 32.91 10.5726 32.91 11.2947C32.91 12.2876 31.5575 12.739 30.3854 12.739C28.6723 12.739 27.7707 12.5584 26.4182 11.9266L25.7871 11.746L25.2461 15.1762C26.2379 15.6275 28.0412 15.9885 29.9346 15.9885C34.3526 15.9885 37.2378 13.9124 37.328 10.7531C37.328 8.94778 36.1558 7.59378 33.7214 6.51059C32.2788 5.78846 31.3772 5.33713 31.3772 4.615C31.3772 3.98313 32.1887 3.261 33.8116 3.261C35.164 3.261 36.1558 3.5318 36.9673 3.8026L37.328 3.98313L37.8689 0.643278Z" fill="#01549A"/>
<path fill-rule="evenodd" clip-rule="evenodd" d="M48.7801 0.282227H45.4441C44.4523 0.282227 43.731 0.553025 43.2802 1.54595L36.9688 15.808H41.3867C41.3867 15.808 42.1081 13.9124 42.2884 13.4611C42.8294 13.4611 47.067 13.4611 47.6982 13.4611C47.8785 14.0027 48.2392 15.808 48.2392 15.808H52.1162L48.7801 0.282227ZM43.5507 10.3018C43.9113 9.39912 45.1736 5.969 45.1736 5.969C45.1736 5.969 45.5343 5.06634 45.8047 4.43448L46.0752 5.78847C46.0752 5.78847 46.8867 9.48939 47.067 10.3018H43.5507Z" fill="#01549A"/>
<path fill-rule="evenodd" clip-rule="evenodd" d="M14.7867 0.282227L10.7294 10.8434L10.2786 8.67699C9.4671 6.2398 7.12286 3.53181 4.41797 2.17782L8.20482 15.808H12.6228L19.2949 0.282227H14.7867Z" fill="#01549A"/>
<path fill-rule="evenodd" clip-rule="evenodd" d="M6.8524 0.282227H0.0901631L0 0.643292C5.31963 1.90702 8.83599 4.97607 10.2786 8.67699L8.74582 1.63622C8.5655 0.643292 7.75403 0.282227 6.8524 0.282227Z" fill="#F7A707"/>
</g>
<defs>
<clipPath id="clip0_1402_33756">
<rect width="52.1143" height="16" fill="white"/>
</clipPath>
</defs>
</svg>
