<svg width="29" height="32" viewBox="0 0 29 32" fill="none" xmlns="http://www.w3.org/2000/svg">
<path fill-rule="evenodd" clip-rule="evenodd" d="M13.1523 0H26.2112C27.2789 0 28.1002 0.930587 28.1002 2.03037V23.2647C28.1002 24.3644 27.2789 25.2104 26.2112 25.2104H13.1523V0Z" fill="black"/>
<path fill-rule="evenodd" clip-rule="evenodd" d="M13.1523 21.4881V18.9502C13.6451 19.0348 14.0558 19.0348 14.5486 19.0348C17.341 19.0348 19.805 18.2734 21.6119 17.0044L18.0802 17.1736C17.6696 17.2582 17.4232 17.089 17.1768 16.8352C16.9304 16.5814 16.7661 16.3276 16.8482 15.9046C16.8482 15.2278 17.341 14.8048 17.9981 14.8048H26.4576C26.8683 14.8048 27.1968 14.974 27.5253 15.397C27.7717 15.7354 27.8538 16.1584 27.6896 16.5814L26.3755 21.6573C26.1291 22.4187 25.3899 22.9263 24.5686 22.7571L24.1579 22.6725C23.7473 22.5879 23.4187 22.3341 23.1724 21.9111C22.926 21.5727 22.8438 21.0651 23.0081 20.6421L23.583 19.1194C21.2833 20.5575 18.0802 21.4881 14.6307 21.4881C14.1379 21.4881 13.6451 21.4881 13.1523 21.4881ZM13.1523 5.83736V4.06079C13.6451 4.06079 14.1379 4.06079 14.6307 4.06079C17.6696 4.06079 20.5442 4.73758 22.7617 6.00656C23.0902 6.17576 23.2545 6.42955 23.2545 6.76795C23.3366 7.10634 23.2545 7.36014 23.0081 7.61394L22.8438 7.69853C22.5153 8.03693 22.0225 8.12153 21.6119 7.86773C19.805 6.59875 17.341 5.75276 14.5486 5.75276C14.0558 5.75276 13.6451 5.83736 13.1523 5.83736Z" fill="white"/>
<path fill-rule="evenodd" clip-rule="evenodd" d="M2.14693 0H13.1525V25.2104H2.14693C1.07922 25.2104 0.175781 24.3644 0.175781 23.2647V2.03037C0.175781 0.930587 1.07922 0 2.14693 0Z" fill="white"/>
<path fill-rule="evenodd" clip-rule="evenodd" d="M13.1546 4.06079V5.83737C8.39101 6.26036 4.6951 9.05212 4.6951 12.4361C4.6951 15.7354 8.39101 18.5272 13.1546 18.9502V21.4881C6.66625 20.9805 1.65625 17.2582 1.65625 12.7745C1.65625 8.29073 6.66625 4.56838 13.1546 4.06079Z" fill="black"/>
<path fill-rule="evenodd" clip-rule="evenodd" d="M4.68661 29.6095H2.05841V30.2863H3.94743C3.8653 30.5401 3.6189 30.8785 3.37251 31.0477C3.12612 31.2169 2.79759 31.3861 2.38693 31.3015C0.826443 31.1323 0.497918 28.9327 1.81202 28.1714C2.22267 27.9176 2.87972 27.9176 3.37251 28.256C3.94743 28.5944 3.20825 28.5944 4.44021 28.5944C4.35808 28.1714 3.8653 27.6638 3.45464 27.4946C2.87972 27.3254 2.22267 27.3254 1.64775 27.4946C0.826443 27.9176 0.0872626 28.9327 0.415787 30.2863C0.662181 31.3015 1.64775 32.1475 2.87972 31.9783C3.70103 31.8091 4.27595 31.2169 4.52235 30.5401C4.60448 30.3709 4.76874 29.8633 4.68661 29.6095Z" fill="black"/>
<path fill-rule="evenodd" clip-rule="evenodd" d="M23.2435 29.5249V28.4251C23.7363 28.4251 24.2291 28.4251 24.2291 28.9327C24.2291 29.5249 23.7363 29.5249 23.2435 29.5249ZM22.1758 31.8936H23.2435V30.4555C23.3256 30.5401 23.9827 31.7244 24.0648 31.8936H25.3789C25.2968 31.809 24.4755 30.6247 24.3112 30.3709C24.4755 30.2863 24.6397 30.2863 24.8861 30.0325C24.9682 29.9479 25.1325 29.7787 25.2146 29.5249C25.461 28.6789 25.1325 27.4945 23.9005 27.4945C23.4077 27.4099 22.7507 27.4099 22.1758 27.4099V31.8936Z" fill="black"/>
<path fill-rule="evenodd" clip-rule="evenodd" d="M18.0717 30.2017C16.5933 30.2017 17.0861 30.1171 16.7576 30.5401C16.4291 30.7939 16.1006 30.9631 15.6078 30.7939C14.5401 30.4555 14.5401 28.7636 15.6899 28.5098C16.1006 28.4252 16.4291 28.5098 16.7576 28.8482C17.0861 29.1866 16.5933 29.102 18.0717 29.102C18.0717 28.8482 17.9075 28.5098 17.7432 28.3406C17.3325 27.6638 16.5933 27.3254 15.6899 27.41C14.6222 27.4946 13.7188 28.4252 13.7188 29.6095C13.7188 30.8785 14.5401 31.8091 15.6078 31.9783C16.5112 32.0629 17.2504 31.7245 17.7432 30.9631C17.8253 30.7939 18.0717 30.4555 18.0717 30.2017Z" fill="black"/>
<path fill-rule="evenodd" clip-rule="evenodd" d="M8.875 31.8936H9.44992V28.0867C9.53205 28.1713 10.3534 30.5401 10.4355 30.963C10.5176 31.1322 10.764 31.809 10.8462 31.8936H11.2568C11.4211 31.4706 11.7496 30.4555 11.9139 29.9479C12.0781 29.6941 12.1603 29.3557 12.3245 29.0173L12.653 28.0867L12.5709 31.8936H13.228V27.4099H12.2424C12.1603 27.8329 11.5032 29.5249 11.3389 30.0325C11.3389 30.1171 11.0925 30.7938 11.0104 30.8784L9.77844 27.4945L8.875 27.4099V31.8936Z" fill="black"/>
<path fill-rule="evenodd" clip-rule="evenodd" d="M19.9595 28.9327C19.9595 29.0173 20.3702 30.2863 20.3702 30.2863H19.5489L19.9595 28.9327ZM17.9062 31.8936H18.974L19.2204 31.2168H20.6166L20.863 31.8936H22.0128C22.0128 31.809 21.2736 29.8633 21.1915 29.6941C21.0272 29.2711 20.9451 28.9327 20.7808 28.5943C20.6987 28.3405 20.4523 27.5791 20.3702 27.4099H19.5489L18.7276 29.6941C18.5633 29.9479 17.9062 31.7244 17.9062 31.8936Z" fill="black"/>
<path fill-rule="evenodd" clip-rule="evenodd" d="M28.0926 29.102L26.8607 29.1866V28.4252H28.0926C28.0926 28.3406 28.0926 27.5792 28.0926 27.4946H25.793V31.8938H28.0926V30.8786H26.8607V30.1172H28.0926V29.102Z" fill="black"/>
<path fill-rule="evenodd" clip-rule="evenodd" d="M6.57281 28.3405C6.57281 28.4251 7.14773 29.8633 7.14773 29.9479H5.91576C5.91576 29.8633 6.49068 28.4251 6.57281 28.3405ZM4.51953 31.8936H5.17658L5.66937 30.6247H7.39412C7.47625 30.7938 7.55838 31.0476 7.64052 31.2168C7.64052 31.386 7.80478 31.809 7.88691 31.8936H8.54396C8.54396 31.7244 7.80478 29.9479 7.72265 29.6941C7.55838 29.4403 6.90134 27.5791 6.8192 27.4099H6.24429L4.51953 31.8936Z" fill="black"/>
<path fill-rule="evenodd" clip-rule="evenodd" d="M28.0901 29.1019V30.1171H26.8581V30.8784H28.0901V31.8936H25.7904V27.4945H28.0901C28.0901 27.5791 28.0901 28.3405 28.0901 28.4251C28.1722 28.4251 28.1722 28.4251 28.1722 28.1713C28.1722 28.0021 28.1722 27.5791 28.0901 27.4099H25.7904C25.7904 27.4945 25.7083 31.7244 25.7904 31.8936C25.9547 31.8936 28.008 31.8936 28.0901 31.8936L28.1722 30.8784H26.8581V30.1171H28.0901C28.1722 30.0325 28.1722 29.7787 28.1722 29.6095C28.1722 29.5249 28.1722 29.1865 28.0901 29.1019Z" fill="black"/>
</svg>
