<svg width="173" height="35" viewBox="0 0 173 35" fill="none" xmlns="http://www.w3.org/2000/svg">
<path d="M20.3904 16.5546C20.3904 13.916 20.4149 11.2719 20.3742 8.63608C20.3742 7.84645 20.6128 7.55729 21.3804 7.60177C22.2837 7.65717 23.1894 7.65717 24.0927 7.60177C24.8332 7.55173 25.3241 7.74913 25.4489 8.55823C25.5736 9.43683 25.9913 9.1727 26.466 8.85851C28.0473 7.7964 29.7479 7.13745 31.679 7.20696C33.2413 7.26256 34.6327 7.76304 35.6335 9.00587C36.1326 9.63146 36.4472 9.43683 36.9517 9.08372C39.1622 7.53782 41.5626 6.75653 44.2478 7.44051C46.5533 8.02717 47.9203 9.55639 48.3 11.9308C48.8072 15.1033 48.4736 18.3091 48.5142 21.4982C48.5305 22.8189 49.0974 24.5316 48.2593 25.3657C47.4917 26.1303 45.8399 25.4491 44.595 25.6104C43.171 25.7939 42.7777 25.2684 42.8401 23.8198C42.9567 21.0005 42.8998 18.17 42.8591 15.3452C42.8428 14.1969 42.8754 12.8873 41.5681 12.3896C40.1495 11.8502 38.8178 12.3757 37.5837 13.1375C37.109 13.4323 37.2257 13.9439 37.2257 14.3971C37.2257 17.639 37.1524 20.8837 37.2582 24.1284C37.2989 25.4185 36.8866 25.7244 35.7393 25.6159C34.703 25.5322 33.6619 25.5322 32.6256 25.6159C31.7658 25.6743 31.5597 25.3379 31.5705 24.5038C31.6085 21.4454 31.5949 18.3869 31.5705 15.3285C31.5705 14.1746 31.6844 12.8512 30.3364 12.3757C28.9206 11.878 27.5753 12.3757 26.3521 13.1737C25.8801 13.4823 26.0619 14.0078 26.0591 14.4554C26.0591 17.7919 26.0212 21.1284 26.0591 24.4649C26.0727 25.3796 25.8096 25.6771 24.9227 25.6187C23.7958 25.5377 22.6647 25.5377 21.5377 25.6187C20.5342 25.6966 20.3416 25.2767 20.3606 24.3481C20.4284 21.7401 20.3904 19.146 20.3904 16.5546ZM53.9388 19.6047C49.8297 16.3906 50.7573 11.3442 52.995 9.27001C55.5255 6.92336 58.5172 6.76765 61.6255 7.67684C62.2792 7.86591 62.7267 7.98825 63.3071 7.485C64.685 6.29221 66.3856 6.32001 68.0699 6.37284C68.55 6.37284 68.7181 6.60639 68.6124 7.07072C68.5663 7.24866 68.5093 7.42661 68.4659 7.60455C67.8448 10.1069 67.8448 10.1069 65.3983 10.3849C66.2608 12.0309 66.7219 13.7492 66.391 15.5815C65.7455 19.146 62.3388 21.4203 58.2677 21.1034C57.7849 21.0672 56.9875 20.4249 56.784 21.3814C56.5806 22.3379 57.3916 22.6715 58.1076 22.8216C59.697 23.1553 61.3081 23.3777 62.9003 23.6808C63.6988 23.8215 64.4832 24.0364 65.2437 24.3231C68.4767 25.6159 69.2199 29.2666 66.8033 31.8301C65.9101 32.7547 64.7979 33.4253 63.5756 33.7764C60.4981 34.7544 57.2122 34.8113 54.1043 33.9404C53.3216 33.7144 52.5829 33.3513 51.9209 32.8672C49.2086 30.9404 49.2086 27.4927 51.9046 25.5687C52.1758 25.3713 52.8539 25.4269 52.4823 24.6261C51.4842 22.4741 51.7582 21.4787 53.551 19.9801C53.6757 19.8522 53.8032 19.7271 53.9388 19.6047ZM59.1898 30.5873C59.8651 30.6176 60.5409 30.5426 61.1942 30.3649C61.932 30.1285 62.8216 29.9478 62.8406 29.0025C62.8596 28.0571 61.9537 27.7735 61.2132 27.6123C59.499 27.2564 57.7632 27.0061 56.0409 26.692C55.5499 26.603 55.295 26.8226 55.0861 27.248C54.6169 28.1934 54.9288 29.2305 55.9459 29.8338C56.9337 30.398 58.0585 30.6604 59.1871 30.5901L59.1898 30.5873ZM56.388 14.0912C56.388 15.7177 57.3835 16.8327 58.8291 16.8327C60.1853 16.8327 61.2566 15.7011 61.2702 14.2191C61.2892 12.6649 60.1147 11.3831 58.6854 11.4054C57.256 11.4276 56.3826 12.473 56.388 14.0912ZM79.8223 24.2369C78.2681 25.5325 76.4536 26.0441 74.4248 25.9051C71.8753 25.7299 69.7054 23.8977 69.2172 21.4231C68.653 18.512 69.7325 16.2599 72.293 15.0143C74.1373 14.119 76.1336 14.0996 78.1081 13.9411C78.515 13.9077 79.1334 14.2191 79.2744 13.5991C79.3341 13.2991 79.2978 12.9874 79.1707 12.7103C79.0436 12.4333 78.8327 12.2057 78.5692 12.0615C77.789 11.5811 76.8733 11.3852 75.9708 11.5054C74.8859 11.6194 73.801 11.7334 72.8164 12.2256C72.1709 12.5453 71.7152 12.5036 71.4901 11.7251C71.4423 11.5949 71.3833 11.4692 71.3138 11.3497C70.0065 8.68891 70.0092 8.69447 72.773 7.85201C74.8579 7.2336 77.0405 7.0381 79.1985 7.27647C82.9089 7.64626 84.9106 9.81775 85.0462 13.7742C85.1709 17.4722 85.1194 21.1757 85.1845 24.8764C85.1845 25.4575 84.9892 25.5937 84.4956 25.5881C83.4107 25.5742 82.3257 25.5492 81.2408 25.5881C80.3186 25.6326 80.4325 24.6094 79.8223 24.2369ZM79.448 19.3517C79.448 17.6835 79.448 17.6279 78.892 17.614C77.8613 17.5889 76.8089 17.614 75.8406 18.0227C74.6825 18.5232 74.319 20.0274 75.1951 20.8615C76.2204 21.8429 77.449 21.4815 78.6424 21.2007C79.7789 20.931 79.3612 20.0051 79.448 19.3517Z" fill="#7C7C7F"/>
<path d="M16.7119 16.1376L16.6061 16.6631H16.4786C11.4067 18.4333 6.33375 20.2062 1.25995 21.982C0.888363 22.1099 0.427272 22.4324 0.126207 22.0543C-0.174858 21.6761 0.218425 21.2785 0.478806 20.9783C1.83495 19.4101 2.69747 17.3193 5.00563 16.5519C2.66221 15.7289 1.76715 13.5713 0.351328 11.942C0.120782 11.6778 -0.17757 11.3247 0.134344 10.9716C0.378451 10.6936 0.722912 10.9132 1.01855 11.0189C4.47402 12.22 7.91864 13.4712 11.3931 14.6195C13.0205 15.1533 14.5475 15.9847 16.2752 16.1265L16.7119 16.1376Z" fill="#B3071A"/>
<path d="M16.7124 16.1375H16.2811C16.4927 15.4925 16.1075 14.9614 15.915 14.4165C14.3771 10.0624 12.8284 5.73054 11.2851 1.39312C11.1359 0.976065 10.7752 0.44501 11.1603 0.111363C11.5455 -0.222285 11.974 0.278186 12.3375 0.508959C12.4134 0.556225 12.4839 0.614614 12.5572 0.670222C16.8697 3.95387 16.8616 3.32272 16.7965 9.20047C16.7693 11.5119 16.7413 13.8243 16.7124 16.1375Z" fill="#B61123"/>
<path d="M16.7354 17.8031C16.7544 20.9477 16.8032 24.0923 16.7733 27.2369C16.7789 27.8667 16.6334 28.4881 16.3496 29.0467C16.0658 29.6052 15.6525 30.0836 15.146 30.44C14.2319 31.1184 13.3423 31.8302 12.4201 32.4919C12.0404 32.7699 11.639 33.3705 11.1507 32.9618C10.7656 32.642 11.1507 32.1026 11.2918 31.6828C12.7383 27.6049 14.1849 23.5335 15.6315 19.4685C15.8322 18.9125 16.0654 18.3564 16.2824 17.8003L16.7354 17.8031Z" fill="#B3071A"/>
<path d="M97.3745 9.98182C96.7344 10.9633 96.2543 11.6223 95.8556 12.3285C95.2508 13.4045 94.7246 13.1626 94.1659 12.3062C93.6967 11.5972 93.3007 10.8243 92.4978 10.1403V14.1079C92.4978 14.6251 92.6768 15.3035 91.7872 15.2729C90.8976 15.2423 91.1362 14.5417 91.1362 14.044C91.1145 12.1496 91.1145 10.2552 91.1362 8.36086C91.1362 7.94936 90.9247 7.38216 91.6109 7.2487C91.8546 7.19164 92.1099 7.21716 92.3383 7.32144C92.5666 7.42571 92.7559 7.60312 92.8775 7.82702C93.5475 8.86133 94.2337 9.88729 95.0284 11.0968C95.6793 10.068 96.2923 9.15049 96.8565 8.19125C97.2308 7.55732 97.6376 7.04017 98.454 7.24592C99.3437 7.46835 98.945 8.22462 98.9612 8.73899C99.0137 10.4072 99.0137 12.0699 98.9612 13.727C98.9422 14.3053 99.3952 15.2479 98.2126 15.2674C96.9243 15.2896 97.4423 14.2692 97.3989 13.6575C97.3338 12.5592 97.3745 11.4471 97.3745 9.98182ZM149.993 9.99573C149.361 10.9633 148.881 11.6223 148.482 12.3285C147.878 13.3989 147.346 13.1626 146.79 12.3062C146.345 11.5472 145.79 10.8619 145.144 10.2738V14.2358C145.144 14.7558 145.187 15.2896 144.422 15.2701C143.657 15.2507 143.755 14.6862 143.755 14.1913C143.755 12.2451 143.741 10.2988 143.755 8.35251C143.755 7.93824 143.543 7.37104 144.235 7.24036C144.479 7.18403 144.734 7.20987 144.963 7.31404C145.192 7.41822 145.381 7.59518 145.504 7.81868C146.174 8.85577 146.86 9.88451 147.674 11.1023C148.382 9.99017 149.071 9.00035 149.654 7.94936C149.775 7.68136 149.984 7.46515 150.244 7.3382C150.504 7.21125 150.799 7.18156 151.078 7.25426C151.835 7.39606 151.569 8.03833 151.577 8.48875C151.604 10.3405 151.577 12.1922 151.577 14.0495C151.577 14.6835 151.577 15.2813 150.701 15.2868C149.825 15.2924 149.99 14.639 149.985 14.119C149.993 12.8623 149.993 11.6111 149.993 9.99573ZM162.198 12.562V8.20237C162.198 7.73249 162.158 7.2626 162.844 7.2348C163.598 7.20421 163.598 7.69356 163.595 8.23574V14.1969C163.595 14.5806 163.755 15.095 163.199 15.2395C162.961 15.3121 162.707 15.3005 162.476 15.2067C162.245 15.1129 162.052 14.9423 161.927 14.7224C160.766 13.107 159.549 11.5388 158.157 9.69266V14.2803C158.157 14.8364 158.157 15.3091 157.406 15.2813C156.747 15.2562 156.56 14.8864 156.56 14.2942V8.47207C156.56 8.04945 156.34 7.45167 156.942 7.28484C157.544 7.11802 158.097 7.17363 158.523 7.74917C159.554 9.13937 160.604 10.5296 161.648 11.9198C161.748 12.0504 161.865 12.1756 162.198 12.562Z" fill="#C0BFC1"/>
<path d="M125.483 17.5027C127.925 17.5027 129.405 19.0569 129.392 21.5926C129.402 22.1229 129.308 22.6498 129.114 23.1414C128.92 23.633 128.63 24.0791 128.263 24.4527C127.896 24.8263 127.458 25.1195 126.977 25.3147C126.496 25.5099 125.982 25.6029 125.464 25.5881C123.05 25.5881 121.515 24.0088 121.523 21.5204C121.532 18.9791 122.994 17.5027 125.483 17.5027ZM127.77 21.5092C127.786 19.9049 126.739 18.651 125.41 18.6871C124.081 18.7233 123.156 19.8799 123.137 21.4675C123.116 23.2831 123.902 24.2479 125.402 24.2479C126.937 24.2229 127.751 23.297 127.773 21.5065L127.77 21.5092Z" fill="#BFBEC0"/>
<path d="M120.139 21.6066C120.139 22.6242 120.12 23.6446 120.139 24.665C120.155 25.3017 119.941 25.5936 119.279 25.5797C118.617 25.5658 118.506 25.2433 118.533 24.6984V23.8642C118.533 21.9902 118.533 21.9902 116.729 21.9902C115.001 21.9902 115.007 21.9902 114.993 23.8058C115.031 24.3098 114.989 24.8166 114.871 25.3073C114.736 25.7049 114.245 25.5714 113.898 25.5436C113.393 25.5047 113.398 25.0959 113.398 24.7095V18.3146C113.398 17.7223 113.634 17.4944 114.212 17.4944C114.79 17.4944 115.048 17.7307 115.01 18.3285C114.996 18.5592 115.01 18.79 115.01 19.0236C115.004 20.8392 115.004 20.8392 116.745 20.8392C118.487 20.8392 118.479 20.8392 118.538 18.676C118.555 18.145 118.392 17.5388 119.271 17.5083C120.193 17.4777 120.144 18.0643 120.139 18.6927C120.133 19.6631 120.139 20.6334 120.139 21.6066ZM130.763 21.537V18.4786C130.763 18.1338 130.651 17.5972 131.137 17.575C132.376 17.5138 133.673 17.1857 134.82 17.9559C136.043 18.79 136.239 20.3554 135.146 21.373C134.603 21.8902 134.617 22.1571 135.013 22.6909C135.387 23.209 135.704 23.7686 135.957 24.3591C136.109 24.7067 136.749 25.1682 136.095 25.4713C135.612 25.6993 134.931 25.716 134.565 25.0181C134.245 24.4092 133.901 23.8142 133.559 23.2192C133.356 22.8661 133.171 22.4017 132.667 22.5574C132.208 22.6992 132.395 23.1747 132.366 23.5167C132.341 23.887 132.341 24.2585 132.366 24.6288C132.404 25.2489 132.203 25.5631 131.53 25.5603C130.806 25.5603 130.749 25.1293 130.757 24.5649C130.771 23.5695 130.76 22.5519 130.763 21.537ZM132.363 20.005C132.363 20.5611 132.254 21.1867 133.12 21.1172C133.795 21.0588 134.237 20.6946 134.237 20.005C134.237 19.3155 133.784 18.9457 133.109 18.8929C132.238 18.8317 132.382 19.4823 132.363 20.005Z" fill="#C1C0C2"/>
<path d="M171.978 13.1125C171.978 14.9142 171.743 15.2034 170.009 15.2784C169.196 15.3146 168.382 15.4147 167.601 15.1144C165.648 14.3748 164.826 12.7399 165.2 10.2904C165.472 8.54155 166.966 7.27091 168.849 7.23199C169.482 7.20823 170.116 7.22588 170.747 7.28481C171.338 7.34598 171.802 7.62958 171.683 8.36083C171.523 9.33118 170.923 8.70281 170.546 8.63886C167.972 8.09947 166.5 9.38123 166.812 11.9281C166.996 13.4517 168.678 14.4554 170.066 13.9049C170.63 13.6825 170.525 13.2071 170.609 12.7622C170.715 12.1866 170.161 11.1579 171.338 11.2218C172.516 11.2858 171.78 12.3006 171.973 12.8623C171.987 12.945 171.988 13.0293 171.978 13.1125ZM134.565 13.0764C134.565 14.9309 134.31 15.2228 132.487 15.284C131.728 15.309 130.96 15.4063 130.209 15.1311C128.256 14.4221 127.421 12.7956 127.768 10.3321C128.015 8.57491 129.509 7.27369 131.384 7.22364C132.017 7.19926 132.651 7.21412 133.282 7.26813C133.952 7.33208 134.448 7.68241 134.231 8.44702C133.99 9.29782 133.399 8.66667 133.019 8.5916C130.578 8.10503 129.187 9.28392 129.371 11.7334C129.401 12.1162 129.517 12.4867 129.709 12.8163C129.901 13.1459 130.165 13.4256 130.48 13.634C130.795 13.8423 131.152 13.9736 131.524 14.0177C131.896 14.0618 132.273 14.0175 132.626 13.8882C133.201 13.6825 133.111 13.2154 133.195 12.7761C133.304 12.1978 132.734 11.1829 133.895 11.2024C135.056 11.2218 134.402 12.2395 134.576 12.8067C134.585 12.8967 134.581 12.9874 134.565 13.0764Z" fill="#C0BFC1"/>
<path d="M99.0006 20.6974V18.3424C99.0006 17.8753 99.0847 17.5389 99.6516 17.5083C100.294 17.4833 100.387 17.8558 100.384 18.3841C100.384 19.6297 100.359 20.8865 100.384 22.1237C100.419 23.5668 100.991 24.2174 102.158 24.2118C103.376 24.2118 103.883 23.6085 103.894 22.1265C103.904 20.8791 103.904 19.6325 103.894 18.3869C103.894 17.8586 103.989 17.5083 104.623 17.4972C105.258 17.4861 105.532 17.7391 105.494 18.3897C105.402 20.044 105.689 21.7123 105.304 23.3527C104.894 25.0932 103.677 25.78 101.398 25.577C99.9364 25.438 99.0332 24.3898 99.0006 22.7744C98.9816 22.0848 99.0006 21.3953 99.0006 20.6974Z" fill="#BFBEC0"/>
<path d="M123.616 15.2785C123.505 15.3033 123.389 15.3042 123.277 15.2812C123.165 15.2582 123.059 15.2116 122.965 15.1446C122.872 15.0775 122.792 14.9913 122.733 14.8913C122.673 14.7914 122.634 14.68 122.618 14.5639C122.423 13.7298 122.06 13.2376 121.056 13.2849C120.053 13.3322 119.157 13.3016 118.97 14.6167C118.903 15.0588 118.58 15.2924 118.089 15.2951C117.47 15.2951 117.131 15.2089 117.43 14.4443C118.279 12.2645 119.098 10.068 119.911 7.87427C119.967 7.67488 120.088 7.50094 120.253 7.38115C120.418 7.26135 120.618 7.20286 120.82 7.21532C121.33 7.19864 121.544 7.51004 121.702 7.9132C122.556 10.093 123.394 12.2784 124.265 14.4499C124.569 15.2006 124.227 15.3368 123.616 15.2785ZM120.847 9.3173C120.541 10.4295 119.887 11.0662 120.28 11.8975C120.345 12.031 121.146 12.0421 121.259 11.8669C121.786 11.0578 121.01 10.4406 120.847 9.3173ZM107.063 14.9281C106.806 15.5176 106.271 15.2757 105.846 15.2256C105.488 15.1839 105.346 14.8002 105.287 14.5055C105.043 13.2821 104.202 13.3266 103.244 13.2877C102.287 13.2488 101.845 13.6464 101.65 14.5444C101.479 15.3202 100.86 15.4286 100.266 15.2395C99.4933 14.9921 100.093 14.4277 100.204 14.1274C100.944 12.0421 101.764 9.98737 102.542 7.91876C102.59 7.71619 102.703 7.53629 102.864 7.4085C103.025 7.28071 103.223 7.2126 103.426 7.21532C103.925 7.19586 104.161 7.46555 104.327 7.88817C105.175 10.0736 106.022 12.259 106.868 14.4443L107.063 14.9281ZM103.57 9.38402C103.112 10.3766 102.631 11.0523 102.873 11.8864C102.903 11.992 103.714 12.0671 103.847 11.8864C104.473 11.0856 103.613 10.4434 103.57 9.38402ZM142.57 14.8225C142.632 15.1255 142.464 15.2395 142.209 15.2646C141.651 15.3174 141.043 15.3535 140.907 14.6278C140.688 13.4545 139.982 13.2933 138.949 13.2766C137.916 13.2599 137.46 13.6158 137.216 14.55C137.045 15.2006 136.554 15.4647 135.96 15.2173C135.323 14.9532 135.689 14.4416 135.841 14.0412C136.591 12.0022 137.353 9.97532 138.127 7.96046C138.274 7.57399 138.442 7.21254 138.971 7.20698C139.173 7.19065 139.375 7.24729 139.541 7.3671C139.706 7.48691 139.826 7.66237 139.879 7.86315C140.731 10.0522 141.585 12.2404 142.44 14.4277C142.491 14.5556 142.527 14.6918 142.57 14.8225ZM139.006 9.67319C138.887 10.4211 138.114 11.03 138.542 11.8252C138.691 12.1032 139.356 12.1032 139.516 11.8252C139.958 11.0189 139.318 10.3822 139.006 9.67319ZM91.907 25.5659C91.2805 25.5659 91.0608 25.3546 91.2751 24.7957C92.143 22.5158 92.9703 20.2192 93.8843 17.9588C94.1745 17.2442 95.1265 17.2915 95.4493 18.0616C96.3715 20.2693 97.2069 22.5103 98.0694 24.7346C98.186 25.0404 98.3189 25.4046 97.8605 25.5159C97.2964 25.6493 96.7404 25.6048 96.5396 24.9125C96.282 24.0284 95.8968 23.5056 94.839 23.564C93.8626 23.6196 93.0516 23.6335 92.8319 24.8514C92.8213 24.9624 92.7884 25.07 92.7351 25.1673C92.6818 25.2647 92.6094 25.3496 92.5225 25.4168C92.4356 25.4839 92.336 25.5319 92.23 25.5575C92.1241 25.5832 92.0141 25.5861 91.907 25.5659ZM94.6627 19.7577C94.3752 20.8142 93.7161 21.3925 94.1664 22.1655C94.2586 22.3268 95.0669 22.3268 95.1537 22.1655C95.5958 21.3953 94.9719 20.8142 94.6627 19.7577Z" fill="#C0BFC1"/>
<path d="M108.536 22.2461C108.536 21.7845 108.514 21.3202 108.536 20.8559C108.601 19.6909 108.704 18.5342 106.954 18.854C106.51 18.9346 106.336 18.6037 106.336 18.1589C106.336 17.5667 106.702 17.5055 107.15 17.5083H111.611C111.912 17.5083 112.455 17.2942 112.425 17.8892C112.406 18.3062 112.306 18.9485 111.685 18.8373C109.903 18.5231 110.09 19.7103 110.114 20.8503C110.141 22.0959 110.114 23.3527 110.114 24.5927C110.114 25.1794 110.014 25.5631 109.3 25.5631C108.587 25.5631 108.487 25.1655 108.506 24.5844C108.549 23.817 108.536 23.0329 108.536 22.2461ZM113.96 11.9113C113.96 11.4053 113.925 10.8937 113.96 10.3905C114.058 9.25884 113.987 8.33019 112.474 8.58043C111.978 8.66384 111.742 8.37468 111.758 7.84084C111.777 7.22638 112.181 7.22916 112.599 7.22638C114.039 7.22638 115.479 7.20691 116.917 7.22638C117.248 7.22638 117.836 6.94834 117.842 7.61841C117.842 8.0744 117.57 8.61379 117.028 8.5415C115.4 8.32185 115.498 9.37562 115.531 10.4878C115.571 11.7779 115.531 13.0708 115.547 14.3609C115.547 14.9976 115.343 15.284 114.687 15.2701C114.031 15.2562 113.941 14.9114 113.949 14.3803C113.971 13.5712 113.96 12.7399 113.96 11.9113Z" fill="#C3C2C4"/>
<path d="M153.376 17.5973C153.089 18.7929 152.394 19.7271 151.811 20.6919C151.092 21.8791 150.688 23.0747 150.829 24.476C150.878 24.9542 150.965 25.5437 150.176 25.5659C149.386 25.5881 149.362 25.0543 149.457 24.5427C149.785 22.6215 148.73 21.1896 147.895 19.6742C147.545 19.0375 147.206 18.3925 146.85 17.728C148.247 17.4221 148.247 17.4221 150.067 20.6224C151.456 19.969 150.87 17.0468 153.376 17.5973ZM142.4 22.2656C142.4 21.8485 142.372 21.4315 142.4 21.0144C142.5 19.7354 142.551 18.5398 140.699 18.8429C140.292 18.9096 140.043 18.5788 140.032 18.1423C140.015 17.5306 140.436 17.5194 140.864 17.5194H145.337C145.657 17.5194 146.151 17.3721 146.132 17.9643C146.115 18.3841 145.936 18.9069 145.445 18.8318C143.547 18.5537 143.723 19.7855 143.767 21.0283C143.81 22.2711 143.767 23.4361 143.767 24.6428C143.767 25.1461 143.729 25.5687 143.069 25.5631C142.41 25.5576 142.4 25.121 142.4 24.6261V22.2656Z" fill="#BFBEC0"/>
<path d="M107.996 11.2274V8.03272C107.996 7.43772 108.248 7.22363 108.81 7.22085C109.371 7.21807 109.607 7.47108 109.599 8.05497C109.58 9.53691 109.651 11.0189 109.575 12.5036C109.523 13.549 109.775 14.1023 110.901 13.9133C111.172 13.89 111.444 13.89 111.715 13.9133C112.2 13.9133 112.311 14.2219 112.298 14.6473C112.298 15.0282 112.138 15.2701 111.742 15.2729H108.628C108.056 15.2729 107.996 14.8725 107.999 14.4221C107.997 13.3581 107.996 12.2932 107.996 11.2274Z" fill="#C1C0C2"/>
<path d="M154.874 11.1829V14.2219C154.874 14.828 154.849 15.3118 154.044 15.2951C153.322 15.2784 153.271 14.8558 153.274 14.297C153.283 12.271 153.283 10.245 153.274 8.21902C153.274 7.66294 153.314 7.23476 154.038 7.2153C154.852 7.19583 154.885 7.67406 154.874 8.28297V11.1829Z" fill="#C5C4C6"/>
<path d="M139.14 21.6428C139.14 22.6576 139.121 23.6725 139.14 24.6873C139.159 25.3379 138.909 25.5965 138.267 25.5826C137.624 25.5687 137.521 25.2351 137.523 24.6985V18.3341C137.523 17.7447 137.754 17.5139 138.337 17.5139C138.92 17.5139 139.151 17.7308 139.151 18.3258C139.14 19.4268 139.14 20.5334 139.14 21.6428Z" fill="#C3C2C4"/>
<path d="M16.7359 17.8031H16.3047L16.481 16.652H16.6085C16.8851 17.0134 16.82 17.4082 16.7359 17.8031Z" fill="#B61123"/>
</svg>
