<svg width="72" height="45" viewBox="0 0 72 45" fill="none" xmlns="http://www.w3.org/2000/svg">
<path d="M16.0867 12.7087C16.0867 10.6848 16.1057 8.65658 16.074 6.63478C16.074 6.02909 16.2598 5.80729 16.8574 5.84142C17.5605 5.88407 18.2657 5.88407 18.9688 5.84142C19.5452 5.80303 19.9274 5.95445 20.0245 6.57506C20.1216 7.249 20.4468 7.04639 20.8163 6.8054C22.0473 5.9907 23.3711 5.48525 24.8745 5.53857C26.0907 5.58123 27.1738 5.96511 27.953 6.91843C28.3415 7.39829 28.5864 7.249 28.9791 6.97815C30.6999 5.79236 32.5686 5.19307 34.6589 5.71772C36.4536 6.16772 37.5178 7.3407 37.8134 9.16203C38.2082 11.5954 37.9485 14.0544 37.9802 16.5007C37.9928 17.5137 38.4341 18.8274 37.7817 19.4672C37.1842 20.0537 35.8983 19.5312 34.9291 19.6549C33.8206 19.7957 33.5145 19.3926 33.563 18.2815C33.6538 16.1189 33.6095 13.9478 33.5778 11.781C33.5652 10.9002 33.5905 9.89568 32.5728 9.51393C31.4685 9.10018 30.4318 9.50326 29.4711 10.0876C29.1016 10.3137 29.1924 10.7061 29.1924 11.0537C29.1924 13.5405 29.1354 16.0293 29.2177 18.5182C29.2494 19.5078 28.9284 19.7424 28.0353 19.6592C27.2286 19.5949 26.4181 19.5949 25.6114 19.6592C24.942 19.704 24.7816 19.4459 24.79 18.8061C24.8196 16.4601 24.809 14.1142 24.79 11.7682C24.79 10.8831 24.8787 9.86796 23.8293 9.50326C22.7271 9.12151 21.6799 9.50326 20.7276 10.1153C20.3602 10.3521 20.5017 10.7552 20.4996 11.0985C20.4996 13.6578 20.47 16.217 20.4996 18.7762C20.5101 19.4779 20.3053 19.7061 19.6149 19.6613C18.7376 19.5992 17.8571 19.5992 16.9798 19.6613C16.1986 19.721 16.0487 19.399 16.0635 18.6867C16.1162 16.6862 16.0867 14.6964 16.0867 12.7087ZM42.203 15.0483C39.0042 12.5829 39.7263 8.71203 41.4683 7.12104C43.4382 5.32104 45.7671 5.20161 48.1869 5.899C48.6957 6.04402 49.0441 6.13786 49.4959 5.75184C50.5686 4.83691 51.8924 4.85824 53.2036 4.89876C53.5774 4.89876 53.7083 5.07791 53.6259 5.43407C53.59 5.57056 53.5457 5.70706 53.5119 5.84355C53.0284 7.76298 53.0284 7.76298 51.1239 7.97625C51.7953 9.23881 52.1542 10.5568 51.8966 11.9623C51.3941 14.6964 48.7422 16.4409 45.5729 16.1978C45.1971 16.1701 44.5763 15.6774 44.4179 16.4111C44.2596 17.1447 44.8909 17.4007 45.4483 17.5158C46.6856 17.7717 47.9398 17.9424 49.1792 18.1748C49.8009 18.2827 50.4115 18.4476 51.0035 18.6675C53.5203 19.6592 54.0989 22.4594 52.2176 24.4258C51.5223 25.1349 50.6564 25.6494 49.705 25.9187C47.3093 26.6689 44.7513 26.7125 42.3318 26.0445C41.7225 25.8711 41.1475 25.5926 40.6321 25.2213C38.5207 23.7433 38.5207 21.0988 40.6195 19.6229C40.8306 19.4715 41.3585 19.5142 41.0692 18.8999C40.2922 17.2492 40.5054 16.4857 41.9011 15.3362C41.9982 15.2381 42.0975 15.1421 42.203 15.0483ZM46.2908 23.4725C46.8165 23.4957 47.3426 23.4382 47.8511 23.3018C48.4254 23.1206 49.118 22.9819 49.1328 22.2568C49.1476 21.5317 48.4423 21.3142 47.8659 21.1905C46.5315 20.9175 45.1802 20.7255 43.8394 20.4845C43.4572 20.4163 43.2588 20.5848 43.0962 20.9111C42.7309 21.6362 42.9737 22.4317 43.7655 22.8945C44.5345 23.3273 45.41 23.5286 46.2887 23.4746L46.2908 23.4725ZM44.1097 10.8191C44.1097 12.0668 44.8846 12.922 46.01 12.922C47.0657 12.922 47.8997 12.054 47.9103 10.9172C47.925 9.72506 47.0108 8.74189 45.8981 8.75895C44.7853 8.77601 44.1054 9.57791 44.1097 10.8191ZM62.3525 18.6014C61.1426 19.5952 59.7301 19.9876 58.1507 19.881C56.166 19.7466 54.4768 18.3412 54.0968 16.4431C53.6576 14.2101 54.4979 12.4826 56.4911 11.5272C57.9269 10.8405 59.4809 10.8255 61.0181 10.704C61.3348 10.6784 61.8162 10.9172 61.926 10.4417C61.9725 10.2116 61.9442 9.97246 61.8452 9.75994C61.7463 9.54743 61.5821 9.37287 61.377 9.26227C60.7696 8.89379 60.0568 8.74348 59.3542 8.83573C58.5097 8.92317 57.6651 9.01061 56.8986 9.3881C56.3961 9.63336 56.0414 9.60137 55.8661 9.00421C55.829 8.90431 55.783 8.80796 55.7289 8.7163C54.7112 6.6753 54.7133 6.67957 56.8649 6.03336C58.4879 5.55901 60.187 5.40905 61.8668 5.59189C64.7553 5.87554 66.3135 7.54118 66.4191 10.576C66.5162 13.4125 66.4761 16.2533 66.5268 19.0919C66.5268 19.5376 66.3748 19.6421 65.9905 19.6379C65.1459 19.6272 64.3013 19.608 63.4568 19.6379C62.7389 19.672 62.8275 18.8872 62.3525 18.6014ZM62.0611 14.8542C62.0611 13.5746 62.0611 13.5319 61.6283 13.5213C60.8259 13.5021 60.0067 13.5213 59.2529 13.8348C58.3513 14.2187 58.0684 15.3725 58.7504 16.0123C59.5485 16.7651 60.505 16.4879 61.434 16.2725C62.3187 16.0656 61.9935 15.3554 62.0611 14.8542Z" fill="#7C7C7F"/>
<path d="M13.2206 12.3889L13.1383 12.7919H13.039C9.09065 14.1498 5.14163 15.5096 1.19177 16.8718C0.902499 16.9699 0.543555 17.2173 0.309186 16.9273C0.0748161 16.6372 0.380974 16.3322 0.583672 16.1019C1.63939 14.8991 2.31083 13.2953 4.10766 12.7066C2.28338 12.0754 1.5866 10.4204 0.484435 9.17062C0.304963 8.96801 0.0727047 8.69716 0.31552 8.42631C0.505549 8.21304 0.773702 8.38152 1.00385 8.46256C3.69382 9.38389 6.37534 10.3436 9.0801 11.2244C10.347 11.6339 11.5357 12.2716 12.8807 12.3803L13.2206 12.3889Z" fill="#B3071A"/>
<path d="M13.2217 12.3888H12.8859C13.0506 11.894 12.7508 11.4867 12.6009 11.0687C11.4037 7.72886 10.1981 4.40611 8.99668 1.07909C8.88055 0.759189 8.59973 0.351843 8.89955 0.0959188C9.19937 -0.160005 9.53298 0.223881 9.81591 0.400895C9.87503 0.437151 9.92993 0.481938 9.98694 0.524592C13.3441 3.04331 13.3378 2.55919 13.2871 7.06772C13.266 8.84064 13.2443 10.6144 13.2217 12.3888Z" fill="#B61123"/>
<path d="M13.2387 13.6663C13.2535 16.0784 13.2915 18.4905 13.2682 20.9026C13.2726 21.3856 13.1593 21.8623 12.9384 22.2907C12.7175 22.7191 12.3957 23.0861 12.0014 23.3594C11.2898 23.8798 10.5973 24.4258 9.87939 24.9334C9.58379 25.1467 9.27129 25.6073 8.89123 25.2938C8.59141 25.0485 8.89123 24.6348 9.00103 24.3128C10.1255 21.1892 11.2516 18.0662 12.3793 14.9438C12.5356 14.5173 12.7172 14.0907 12.8861 13.6642L13.2387 13.6663Z" fill="#B3071A"/>
<path d="M13.7475 32.8446C13.2492 33.5974 12.8754 34.1029 12.565 34.6446C12.0942 35.4699 11.6846 35.2844 11.2496 34.6275C10.8843 34.0837 10.5761 33.4908 9.95109 32.9661V36.0095C9.95109 36.4062 10.0904 36.9265 9.39789 36.9031C8.70534 36.8796 8.89115 36.3422 8.89115 35.9604C8.87426 34.5074 8.87426 33.0542 8.89115 31.6012C8.89115 31.2856 8.72645 30.8505 9.26065 30.7481C9.45039 30.7044 9.64908 30.7239 9.82687 30.8039C10.0047 30.8839 10.152 31.02 10.2467 31.1917C10.7682 31.9851 11.3024 32.772 11.9211 33.6998C12.4278 32.9107 12.905 32.2069 13.3442 31.4711C13.6355 30.9848 13.9523 30.5882 14.5878 30.746C15.2804 30.9166 14.97 31.4967 14.9826 31.8912C15.0236 33.1709 15.0236 34.4462 14.9826 35.7173C14.9679 36.1609 15.3205 36.8839 14.3999 36.8988C13.397 36.9159 13.8002 36.1332 13.7665 35.664C13.7158 34.8216 13.7475 33.9685 13.7475 32.8446ZM54.7091 32.8467C54.2172 33.5889 53.8434 34.0943 53.5331 34.636C53.0622 35.4571 52.6484 35.2758 52.2155 34.619C51.8689 34.0367 51.4368 33.5111 50.9339 33.06V36.0991C50.9339 36.4979 50.9677 36.9074 50.3722 36.8924C49.7768 36.8775 49.8528 36.4446 49.8528 36.0649C49.8528 34.572 49.8423 33.0792 49.8528 31.5863C49.8528 31.2685 49.6881 30.8334 50.2265 30.7332C50.4166 30.69 50.6153 30.7098 50.7933 30.7897C50.9713 30.8696 51.1191 31.0054 51.2147 31.1768C51.7362 31.9723 52.2704 32.7614 52.9038 33.6955C53.4549 32.8424 53.9912 32.0832 54.4452 31.277C54.5393 31.0715 54.7017 30.9056 54.9041 30.8082C55.1066 30.7109 55.3364 30.6881 55.5537 30.7439C56.1428 30.8526 55.9359 31.3453 55.9422 31.6908C55.9633 33.1111 55.9422 34.5315 55.9422 35.9562C55.9422 36.4424 55.9422 36.901 55.2602 36.9052C54.5782 36.9095 54.707 36.4083 54.7028 36.0095C54.7091 35.0455 54.7091 34.0858 54.7091 32.8467ZM64.173 34.8216V31.4775C64.173 31.1171 64.1413 30.7567 64.6755 30.7353C65.2625 30.7119 65.2625 31.0872 65.2604 31.5031V36.0756C65.2604 36.3699 65.385 36.7645 64.9521 36.8754C64.7669 36.931 64.5686 36.9221 64.389 36.8502C64.2094 36.7782 64.059 36.6474 63.9619 36.4787C63.0582 35.2396 62.1101 34.0367 61.027 32.6206V36.1396C61.027 36.5661 61.027 36.9287 60.4421 36.9073C59.929 36.8882 59.7833 36.6045 59.7833 36.1502V31.6844C59.7833 31.3602 59.6123 30.9017 60.081 30.7737C60.5498 30.6457 60.9805 30.6884 61.312 31.1299C62.1144 32.1962 62.9315 33.2626 63.7444 34.3289C63.8225 34.4292 63.9133 34.5251 64.173 34.8216Z" fill="#C0BFC1"/>
<path d="M35.5984 38.6018C37.4986 38.6018 38.6515 39.794 38.6409 41.739C38.6491 42.1457 38.5754 42.5499 38.4244 42.927C38.2733 43.3041 38.048 43.6463 37.7621 43.9328C37.4763 44.2194 37.1358 44.4443 36.7613 44.594C36.3868 44.7437 35.9862 44.815 35.5836 44.8037C33.7044 44.8037 32.5093 43.5923 32.5157 41.6836C32.522 39.7343 33.6601 38.6018 35.5984 38.6018ZM37.3783 41.675C37.391 40.4445 36.5759 39.4826 35.5413 39.5103C34.5067 39.5381 33.7867 40.4253 33.772 41.643C33.7551 43.0357 34.3674 43.7757 35.535 43.7757C36.7301 43.7565 37.3635 43.0464 37.3804 41.6729L37.3783 41.675Z" fill="#BFBEC0"/>
<path d="M31.4305 41.7562C31.4305 42.5367 31.4157 43.3194 31.4305 44.1021C31.4432 44.5905 31.2764 44.8145 30.7612 44.8038C30.246 44.7931 30.1594 44.5457 30.1805 44.1277V43.4879C30.1805 42.0505 30.1805 42.0505 28.7764 42.0505C27.4315 42.0505 27.4357 42.0505 27.4251 43.4431C27.4541 43.8297 27.4221 44.2184 27.3301 44.5948C27.2245 44.8998 26.8424 44.7974 26.5721 44.7761C26.1794 44.7462 26.1836 44.4327 26.1836 44.1363V39.231C26.1836 38.7768 26.3673 38.6019 26.817 38.6019C27.2668 38.6019 27.4673 38.7832 27.4378 39.2417C27.4272 39.4187 27.4378 39.5957 27.4378 39.7749C27.4336 41.1675 27.4336 41.1675 28.7891 41.1675C30.1446 41.1675 30.1383 41.1675 30.1848 39.5083C30.1974 39.1009 30.0707 38.636 30.7549 38.6126C31.4727 38.5891 31.4347 39.0391 31.4305 39.5211C31.4263 40.2654 31.4305 41.0097 31.4305 41.7562ZM39.7052 41.7342V39.3882C39.7052 39.1238 39.6187 38.7122 39.9966 38.6951C40.9615 38.6482 41.9708 38.3965 42.8639 38.9873C43.8162 39.6271 43.9682 40.8278 43.1173 41.6084C42.695 42.0051 42.7056 42.2098 43.0139 42.6193C43.3055 43.0166 43.552 43.4459 43.7486 43.8989C43.8669 44.1655 44.3652 44.5195 43.8563 44.752C43.4805 44.9269 42.9505 44.9397 42.6655 44.4043C42.4163 43.9373 42.1482 43.4809 41.8821 43.0245C41.7238 42.7536 41.5802 42.3975 41.1875 42.5169C40.8306 42.6257 40.9763 42.9904 40.9531 43.2527C40.9344 43.5367 40.9344 43.8217 40.9531 44.1058C40.9826 44.5814 40.8264 44.8224 40.3028 44.8202C39.739 44.8202 39.6947 44.4897 39.701 44.0567C39.7116 43.2932 39.7031 42.5126 39.7052 41.7342ZM40.951 40.5591C40.951 40.9856 40.8665 41.4655 41.5401 41.4122C42.0658 41.3674 42.41 41.088 42.41 40.5591C42.41 40.0302 42.0574 39.7465 41.5316 39.706C40.8539 39.6591 40.9658 40.1581 40.951 40.5591Z" fill="#C1C0C2"/>
<path d="M71.8578 35.2294C71.8578 36.6114 71.6741 36.8332 70.3249 36.8908C69.6915 36.9185 69.0581 36.9953 68.45 36.765C66.9297 36.1977 66.29 34.9437 66.5814 33.0647C66.7925 31.7233 67.9559 30.7486 69.4212 30.7188C69.9143 30.7006 70.4079 30.7141 70.8993 30.7593C71.3595 30.8062 71.7206 31.0237 71.6277 31.5846C71.5031 32.329 71.0365 31.847 70.743 31.7979C68.7393 31.3842 67.5927 32.3673 67.8356 34.3209C67.9791 35.4896 69.2882 36.2595 70.3693 35.8373C70.8085 35.6666 70.7261 35.3019 70.7916 34.9607C70.8739 34.5192 70.4432 33.7301 71.3595 33.7792C72.2759 33.8282 71.7037 34.6067 71.8536 35.0375C71.8642 35.1008 71.8657 35.1655 71.8578 35.2294ZM42.7259 35.2087C42.7259 36.6313 42.5275 36.8552 41.1086 36.9021C40.5174 36.9213 39.9198 36.9959 39.335 36.7848C37.8147 36.241 37.1644 34.9933 37.4347 33.1038C37.6268 31.7559 38.7902 30.7578 40.2492 30.7194C40.7421 30.7007 41.2357 30.7121 41.7272 30.7535C42.2487 30.8026 42.6351 31.0713 42.4662 31.6578C42.2783 32.3104 41.818 31.8263 41.5224 31.7687C39.6221 31.3955 38.5389 32.2997 38.6825 34.1786C38.706 34.4722 38.7961 34.7564 38.9458 35.0092C39.0954 35.262 39.3007 35.4766 39.5457 35.6365C39.7907 35.7963 40.0688 35.897 40.3584 35.9308C40.6481 35.9646 40.9416 35.9306 41.2162 35.8315C41.6639 35.6737 41.5942 35.3154 41.6597 34.9784C41.7441 34.5348 41.3007 33.7564 42.2044 33.7713C43.1081 33.7862 42.5992 34.5668 42.7344 35.0019C42.7411 35.071 42.7382 35.1407 42.7259 35.2087Z" fill="#C0BFC1"/>
<path d="M14.9988 41.0568V39.2504C14.9988 38.8921 15.0642 38.6341 15.5055 38.6106C16.0059 38.5914 16.0777 38.8772 16.0756 39.2824C16.0756 40.2379 16.0566 41.2018 16.0756 42.1509C16.103 43.2578 16.5486 43.7568 17.4565 43.7525C18.4045 43.7525 18.7993 43.2898 18.8078 42.153C18.8162 41.1963 18.8162 40.24 18.8078 39.2845C18.8078 38.8793 18.8817 38.6106 19.3758 38.6021C19.8698 38.5935 20.0831 38.7876 20.0535 39.2867C19.9818 40.5556 20.2056 41.8353 19.9057 43.0935C19.5869 44.4286 18.6389 44.9554 16.8653 44.7997C15.7272 44.6931 15.0241 43.889 14.9988 42.6499C14.984 42.121 14.9988 41.5921 14.9988 41.0568Z" fill="#BFBEC0"/>
<path d="M34.0387 36.8969C33.9517 36.916 33.8618 36.9167 33.7746 36.899C33.6874 36.8813 33.6047 36.8457 33.5317 36.7942C33.4588 36.7427 33.3971 36.6766 33.3507 36.6C33.3042 36.5233 33.2739 36.4378 33.2617 36.3488C33.1097 35.709 32.8267 35.3315 32.0455 35.3678C31.2643 35.404 30.5675 35.3806 30.4218 36.3893C30.369 36.7284 30.1178 36.9076 29.7356 36.9097C29.2542 36.9097 28.9902 36.8436 29.2225 36.2571C29.8834 34.5851 30.521 32.9002 31.1545 31.2175C31.1979 31.0646 31.2916 30.9312 31.4202 30.8393C31.5488 30.7474 31.7046 30.7025 31.8618 30.7121C32.2588 30.6993 32.4256 30.9381 32.548 31.2474C33.2131 32.9194 33.8656 34.5957 34.5433 36.2614C34.7798 36.8372 34.5138 36.9417 34.0387 36.8969ZM31.8829 32.3244C31.6443 33.1775 31.1355 33.6659 31.4416 34.3035C31.4923 34.4059 32.1152 34.4144 32.2039 34.2801C32.6135 33.6595 32.0096 33.186 31.8829 32.3244ZM21.2176 36.6278C21.017 37.0799 20.6011 36.8944 20.2696 36.856C19.9909 36.824 19.8811 36.5297 19.8346 36.3036C19.6446 35.3652 18.9901 35.3993 18.2447 35.3695C17.4994 35.3396 17.1552 35.6446 17.0032 36.3335C16.8702 36.9285 16.3888 37.0117 15.9264 36.8666C15.3246 36.6768 15.7912 36.2439 15.8778 36.0136C16.4542 34.414 17.0919 32.838 17.6979 31.2512C17.7351 31.0958 17.8235 30.9579 17.9486 30.8598C18.0736 30.7618 18.2279 30.7096 18.3862 30.7117C18.7747 30.6967 18.9584 30.9036 19.0872 31.2278C19.7474 32.9041 20.4068 34.5804 21.0656 36.2567L21.2176 36.6278ZM18.4981 32.3752C18.1413 33.1365 17.7675 33.6548 17.9555 34.2946C17.9787 34.3756 18.61 34.4332 18.7135 34.2946C19.2012 33.6804 18.5319 33.1877 18.4981 32.3752ZM48.9224 36.5544C48.971 36.7869 48.8401 36.8743 48.6416 36.8935C48.2066 36.934 47.7337 36.9617 47.6281 36.4051C47.4571 35.5051 46.9081 35.3814 46.1037 35.3686C45.2992 35.3558 44.9445 35.6288 44.7544 36.3454C44.6214 36.8445 44.2393 37.0471 43.7768 36.8572C43.2807 36.6546 43.5657 36.2622 43.6839 35.9551C44.2662 34.3961 44.8595 32.8413 45.4639 31.2909C45.5779 30.9945 45.7088 30.7172 46.1205 30.7129C46.278 30.7004 46.4349 30.7439 46.5641 30.8358C46.6932 30.9277 46.7865 31.0622 46.8279 31.2162C47.4909 32.8953 48.1553 34.5738 48.8211 36.2516C48.8612 36.3497 48.8886 36.4542 48.9224 36.5544ZM46.148 32.6046C46.0551 33.1783 45.4533 33.6454 45.7869 34.2554C45.9031 34.4686 46.4204 34.4686 46.5449 34.2554C46.8891 33.6369 46.3908 33.1485 46.148 32.6046ZM9.42124 44.8257C8.9335 44.8257 8.76247 44.6636 8.92928 44.2349C9.60494 42.4861 10.2489 40.7245 10.9605 38.9906C11.1864 38.4425 11.9275 38.4787 12.1788 39.0695C12.8967 40.7629 13.547 42.4818 14.2184 44.188C14.3092 44.4226 14.4127 44.702 14.0558 44.7873C13.6167 44.8896 13.1838 44.8555 13.0276 44.3245C12.827 43.6463 12.5272 43.2453 11.7037 43.2901C10.9436 43.3328 10.3123 43.3434 10.1412 44.2776C10.133 44.3628 10.1073 44.4453 10.0659 44.5199C10.0244 44.5946 9.96805 44.6597 9.90037 44.7113C9.83269 44.7628 9.75516 44.7996 9.67269 44.8192C9.59022 44.8389 9.5046 44.8411 9.42124 44.8257ZM11.5665 40.3704C11.3427 41.1809 10.8296 41.6245 11.1801 42.2174C11.2519 42.3411 11.8811 42.3411 11.9486 42.2174C12.2928 41.6266 11.8072 41.1809 11.5665 40.3704Z" fill="#C0BFC1"/>
<path d="M22.4038 42.2648C22.4038 41.9108 22.3869 41.5546 22.4038 41.1984C22.4545 40.3048 22.5347 39.4176 21.1728 39.6629C20.8265 39.7247 20.6914 39.4709 20.6914 39.1297C20.6914 38.6754 20.9765 38.6285 21.3248 38.6307H24.7981C25.0325 38.6307 25.4548 38.4664 25.4316 38.9228C25.4168 39.2427 25.3387 39.7354 24.8552 39.6501C23.4679 39.4091 23.6136 40.3198 23.6326 41.1942C23.6538 42.1496 23.6326 43.1136 23.6326 44.0648C23.6326 44.5148 23.5545 44.8091 22.9992 44.8091C22.4439 44.8091 22.3658 44.5041 22.3806 44.0584C22.4143 43.4698 22.4038 42.8683 22.4038 42.2648ZM26.6294 34.3484C26.6294 33.9603 26.6019 33.5678 26.6294 33.1818C26.7054 32.3138 26.6505 31.6015 25.4723 31.7934C25.0859 31.8574 24.9022 31.6356 24.9149 31.2261C24.9297 30.7548 25.2443 30.7569 25.5695 30.7548C26.6906 30.7548 27.8118 30.7399 28.9309 30.7548C29.1885 30.7548 29.6466 30.5415 29.6509 31.0555C29.6509 31.4053 29.4397 31.819 29.0174 31.7636C27.7506 31.5951 27.8266 32.4034 27.8519 33.2565C27.8836 34.246 27.8519 35.2377 27.8646 36.2273C27.8646 36.7157 27.7062 36.9354 27.1953 36.9247C26.6843 36.914 26.6146 36.6496 26.621 36.2422C26.6378 35.6216 26.6294 34.984 26.6294 34.3484Z" fill="#C3C2C4"/>
<path d="M57.2336 38.6546C57.0098 39.5716 56.4693 40.2882 56.0153 41.0283C55.4558 41.9389 55.1412 42.856 55.251 43.9309C55.289 44.2977 55.3566 44.7498 54.7421 44.7669C54.1277 44.784 54.1087 44.3745 54.1826 43.9821C54.4381 42.5084 53.6167 41.41 52.9664 40.2477C52.694 39.7593 52.4301 39.2645 52.1535 38.7548C53.2409 38.5202 53.2409 38.5202 54.6577 40.975C55.7387 40.4738 55.2827 38.2323 57.2336 38.6546ZM48.7186 42.255C48.7186 41.9351 48.6975 41.6152 48.7186 41.2953C48.7968 40.3142 48.8369 39.3972 47.3948 39.6296C47.0781 39.6808 46.8838 39.427 46.8754 39.0922C46.8627 38.623 47.19 38.6145 47.5236 38.6145H51.0053C51.2545 38.6145 51.6387 38.5015 51.624 38.9557C51.6113 39.2778 51.4719 39.6787 51.0898 39.6211C49.6118 39.4078 49.749 40.3526 49.7828 41.3059C49.8166 42.2593 49.7828 43.1529 49.7828 44.0785C49.7828 44.4645 49.7532 44.7886 49.2402 44.7844C48.7271 44.7801 48.7186 44.4453 48.7186 44.0657V42.255Z" fill="#BFBEC0"/>
<path d="M21.9609 33.7841V31.3336C21.9609 30.8772 22.1573 30.713 22.5944 30.7108C23.0314 30.7087 23.2151 30.9028 23.2088 31.3506C23.194 32.4874 23.2489 33.6241 23.1898 34.763C23.1497 35.5649 23.346 35.9893 24.2223 35.8442C24.4331 35.8264 24.6449 35.8264 24.8557 35.8442C25.2337 35.8442 25.3202 36.081 25.3097 36.4073C25.3097 36.6994 25.1851 36.885 24.8768 36.8871H22.4529C22.0074 36.8871 21.9609 36.58 21.963 36.2345C21.9616 35.4183 21.9609 34.6015 21.9609 33.7841Z" fill="#C1C0C2"/>
<path d="M58.4685 33.7546V36.0857C58.4685 36.5506 58.4495 36.9217 57.8224 36.9089C57.2607 36.8961 57.2206 36.5719 57.2227 36.1432C57.2299 34.5891 57.2299 33.0353 57.2227 31.4812C57.2227 31.0546 57.2544 30.7262 57.8182 30.7113C58.4516 30.6963 58.4769 31.0632 58.4685 31.5302V33.7546Z" fill="#C5C4C6"/>
<path d="M46.2311 41.7689C46.2311 42.5473 46.2163 43.3257 46.2311 44.1042C46.2459 44.6032 46.0516 44.8016 45.5512 44.7909C45.0508 44.7802 44.9706 44.5243 44.9727 44.1127V39.231C44.9727 38.7788 45.1522 38.6018 45.6061 38.6018C46.0601 38.6018 46.2396 38.7682 46.2396 39.2246C46.2311 40.0691 46.2311 40.9179 46.2311 41.7689Z" fill="#C3C2C4"/>
<path d="M13.2381 13.6663H12.9023L13.0396 12.7833H13.1388C13.3542 13.0606 13.3035 13.3634 13.2381 13.6663Z" fill="#B61123"/>
</svg>
