<svg width="103" height="32" viewBox="0 0 103 32" fill="none" xmlns="http://www.w3.org/2000/svg">
<path fill-rule="evenodd" clip-rule="evenodd" d="M5.92828 0H97.0483C98.5783 0 99.9383 0.680851 100.958 1.53191C101.808 2.55319 102.488 3.91489 102.488 5.44681V26.5532C102.488 28.0851 101.808 29.4468 100.958 30.4681C99.9383 31.4894 98.5783 32 97.0483 32H5.92828C4.39828 32 3.03828 31.4894 2.01828 30.4681C1.16828 29.4468 0.488281 28.0851 0.488281 26.5532V5.44681C0.488281 3.91489 1.16828 2.55319 2.01828 1.53191C3.03828 0.680851 4.39828 0 5.92828 0ZM97.0483 1.3617H5.92828C4.73828 1.3617 3.71828 1.87234 3.03828 2.55319C2.35828 3.23404 1.84828 4.25532 1.84828 5.44681V26.5532C1.84828 27.7447 2.35828 28.766 3.03828 29.4468C3.71828 30.2979 4.73828 30.6383 5.92828 30.6383H97.0483C98.2383 30.6383 99.2583 30.2979 99.9383 29.4468C100.618 28.766 101.128 27.7447 101.128 26.5532V5.44681C101.128 4.25532 100.618 3.23404 99.9383 2.55319C99.2583 1.87234 98.2383 1.3617 97.0483 1.3617ZM37.5483 12.2553H38.5683V9.19149H39.4183C40.2683 9.19149 40.6083 9.70213 40.7783 10.5532C40.9483 11.5745 41.1183 12.0851 41.2883 12.2553H42.3083C42.1383 12.0851 41.9683 11.4043 41.6283 10.383C41.4583 9.70213 41.2883 9.19149 40.6083 8.85106C41.4583 8.68085 41.9683 8 41.9683 6.97872C41.9683 6.46808 41.7983 5.95745 41.4583 5.61702C40.9483 5.2766 40.4383 5.10638 39.4183 5.10638C38.7383 5.10638 38.0583 5.10638 37.5483 5.2766V12.2553ZM38.5683 5.95745C38.7383 5.78723 38.9083 5.78723 39.4183 5.78723C40.4383 5.78723 41.1183 6.29787 41.1183 7.14894C41.1183 8 40.4383 8.51064 39.4183 8.51064H38.5683V5.95745ZM47.0683 8.17021H44.1783V5.95745H47.2383V5.10638H43.3283V12.2553H47.4083V11.5745H44.1783V9.02128H47.0683V8.17021ZM48.0883 11.9149C48.5983 12.2553 49.2783 12.4255 49.9583 12.4255C51.6583 12.4255 52.5083 11.4043 52.5083 10.383C52.5083 9.3617 51.8283 8.68085 50.6383 8.34043C49.6183 7.82979 49.2783 7.48936 49.2783 6.80851C49.2783 6.46808 49.6183 5.78723 50.6383 5.78723C51.3183 5.78723 51.6583 5.95745 51.9983 6.12766L52.1683 5.44681C51.8283 5.2766 51.3183 5.10638 50.6383 5.10638C49.2783 5.10638 48.2583 5.95745 48.2583 6.97872C48.2583 8 49.1083 8.68085 50.1283 9.02128C51.1483 9.3617 51.4883 9.70213 51.4883 10.383C51.4883 11.234 50.9783 11.7447 50.1283 11.7447C49.4483 11.7447 48.7683 11.4043 48.4283 11.234L48.0883 11.9149ZM53.6983 12.2553H54.7183V9.53191H55.3983C56.2483 9.53191 57.0983 9.19149 57.6083 8.68085C57.9483 8.34043 58.1183 7.82979 58.1183 7.14894C58.1183 6.6383 57.9483 6.12766 57.6083 5.78723C57.0983 5.2766 56.4183 5.10638 55.5683 5.10638C54.7183 5.10638 54.2083 5.10638 53.6983 5.2766V12.2553ZM54.7183 5.95745C54.8883 5.95745 55.2283 5.78723 55.5683 5.78723C56.5883 5.78723 57.2683 6.29787 57.2683 7.31915C57.2683 8.17021 56.5883 8.85106 55.3983 8.85106C55.0583 8.85106 54.8883 8.68085 54.7183 8.68085V5.95745ZM62.3683 5.10638C60.3283 5.10638 58.9683 6.46808 58.9683 8.85106C58.9683 11.0638 60.3283 12.4255 62.1983 12.4255C64.0683 12.4255 65.5983 11.0638 65.5983 8.68085C65.5983 6.46808 64.2383 5.10638 62.3683 5.10638ZM62.1983 5.78723C63.7283 5.78723 64.5783 7.31915 64.5783 8.68085C64.5783 10.383 63.7283 11.7447 62.1983 11.7447C60.8383 11.7447 59.9883 10.383 59.9883 8.85106C59.9883 7.14894 60.6683 5.78723 62.1983 5.78723ZM67.6383 12.2553V9.19149C67.6383 8 67.6383 7.14894 67.4683 6.29787C67.9783 7.14894 68.3183 7.82979 68.8283 8.68085L71.2083 12.2553H72.0583V5.10638H71.2083V8.17021C71.2083 9.3617 71.2083 10.2128 71.3783 11.0638C71.0383 10.383 70.5283 9.70213 70.0183 8.85106L67.8083 5.10638H66.7883V12.2553H67.6383ZM73.4183 11.9149C73.7583 12.2553 74.4383 12.4255 75.1183 12.4255C76.8183 12.4255 77.6683 11.4043 77.6683 10.383C77.6683 9.3617 76.9883 8.68085 75.7983 8.34043C74.7783 7.82979 74.4383 7.48936 74.4383 6.80851C74.4383 6.46808 74.7783 5.78723 75.7983 5.78723C76.4783 5.78723 76.8183 5.95745 77.1583 6.12766L77.3283 5.44681C76.9883 5.2766 76.4783 5.10638 75.7983 5.10638C74.4383 5.10638 73.4183 5.95745 73.4183 6.97872C73.4183 8 74.2683 8.68085 75.4583 9.02128C76.3083 9.3617 76.6483 9.70213 76.6483 10.383C76.6483 11.234 76.1383 11.7447 75.2883 11.7447C74.6083 11.7447 73.9283 11.4043 73.5883 11.234L73.4183 11.9149ZM78.8583 5.10638V12.2553H79.8783V5.10638H78.8583ZM81.4083 12.2553C81.7483 12.4255 82.2583 12.4255 82.9383 12.4255C84.1283 12.4255 84.8083 12.2553 85.3183 11.7447C85.6583 11.4043 85.9983 10.8936 85.9983 10.2128C85.9983 9.19149 85.1483 8.68085 84.4683 8.51064C85.3183 8.17021 85.6583 7.65957 85.6583 6.97872C85.6583 6.29787 85.4883 5.95745 85.1483 5.61702C84.6383 5.2766 84.1283 5.10638 83.1083 5.10638C82.4283 5.10638 81.9183 5.10638 81.4083 5.2766V12.2553ZM82.4283 5.95745C82.5983 5.78723 82.7683 5.78723 83.2783 5.78723C84.1283 5.78723 84.8083 6.12766 84.8083 6.97872C84.8083 7.65957 84.1283 8.17021 83.2783 8.17021H82.4283V5.95745ZM82.4283 8.85106H83.1083C84.1283 8.85106 84.9783 9.3617 84.9783 10.2128C84.9783 11.234 84.1283 11.7447 83.1083 11.7447C82.7683 11.7447 82.5983 11.5745 82.4283 11.5745V8.85106ZM87.1883 12.2553H91.2683V11.5745H88.2083V5.10638H87.1883V12.2553ZM95.8583 8.17021H93.1383V5.95745H96.0283V5.10638H92.2883V12.2553H96.1983V11.5745H93.1383V9.02128H95.8583V8.17021ZM45.8783 19.7447H41.7983V21.9574H43.4983V24.5106C43.3283 24.6809 42.8183 24.6809 42.3083 24.6809C40.2683 24.6809 38.9083 23.1489 38.9083 20.766C38.9083 18.0426 40.4383 16.6809 42.4783 16.6809C43.6683 16.6809 44.3483 17.0213 45.0283 17.3617L45.5383 15.1489C45.0283 14.8085 43.8383 14.4681 42.4783 14.4681C38.9083 14.4681 36.3583 16.8511 36.3583 20.766C36.3583 22.6383 36.8683 24.1702 37.8883 25.3617C38.9083 26.383 40.2683 26.8936 42.3083 26.8936C43.6683 26.8936 45.1983 26.5532 45.8783 26.2128V19.7447ZM53.3583 23.6596L54.2083 26.7234H56.7583L53.5283 14.6383H50.2983L47.0683 26.7234H49.4483L50.2983 23.6596H53.3583ZM50.6383 21.617L51.3183 19.0638C51.4883 18.383 51.6583 17.3617 51.8283 16.6809C51.9983 17.3617 52.1683 18.2128 52.3383 19.0638L53.0183 21.617H50.6383ZM67.4683 26.7234H69.8483L69.3383 14.6383H66.1083L64.9183 18.7234C64.5783 20.0851 64.2383 21.617 63.8983 22.9787C63.7283 21.617 63.3883 20.0851 63.0483 18.7234L62.0283 14.6383H58.6283L57.9483 26.7234H60.3283L60.4983 22.1277C60.4983 20.5957 60.6683 18.7234 60.6683 17.1915C61.0083 18.7234 61.3483 20.4255 61.6883 21.9574L62.8783 26.5532H64.7483L66.1083 21.7872C66.4483 20.4255 66.9583 18.7234 67.2983 17.1915V22.1277L67.4683 26.7234ZM71.7183 14.6383V26.7234H74.2683V14.6383H71.7183ZM78.5183 26.7234V23.1489V17.8723C79.0283 19.234 79.7083 20.766 80.3883 22.1277L82.7683 26.7234H85.3183V14.6383H83.1083V18.2128C83.1083 19.9149 83.1083 21.617 83.2783 23.3191C82.7683 21.9574 82.0883 20.4255 81.4083 19.0638L79.1983 14.6383H76.3083V26.7234H78.5183ZM96.3683 19.7447H92.4583V21.9574H93.9883V24.5106C93.8183 24.6809 93.4783 24.6809 92.7983 24.6809C90.9283 24.6809 89.3983 23.1489 89.3983 20.766C89.3983 18.0426 90.9283 16.6809 92.9683 16.6809C94.1583 16.6809 95.0083 17.0213 95.5183 17.3617L96.0283 15.1489C95.5183 14.8085 94.4983 14.4681 93.1383 14.4681C89.5683 14.4681 86.8483 16.8511 86.8483 20.766C86.8483 22.6383 87.3583 24.1702 88.3783 25.3617C89.3983 26.383 90.7583 26.8936 92.7983 26.8936C94.1583 26.8936 95.6883 26.5532 96.3683 26.2128V19.7447ZM18.8483 26.5532H14.5983V18.2128H13.4083C11.7083 18.383 10.8583 19.0638 10.3483 21.617C9.83828 24.1702 9.32828 26.0426 8.98828 26.5532H4.73828C5.07828 25.7021 5.75828 22.9787 6.26828 20.5957C6.77828 18.7234 7.45828 17.1915 8.81828 16.6809V16.5106C7.11828 16 5.41828 14.1277 5.41828 11.4043C5.41828 9.3617 6.09828 8 7.11828 6.97872C8.47828 5.78723 10.5183 5.2766 13.2383 5.2766C15.4483 5.2766 17.4883 5.44681 18.8483 5.78723V7.65957C20.7183 6.12766 23.0983 5.2766 25.9883 5.2766C28.3683 5.2766 30.2383 5.78723 31.0883 6.29787L30.2383 10.0426C29.2183 9.53191 28.0283 9.19149 25.8183 9.19149C22.4183 9.19149 19.6983 11.4043 19.6983 16C19.6983 20.4255 22.0783 22.9787 25.6483 22.9787C26.4983 22.9787 27.3483 22.8085 27.6883 22.6383V18.2128H24.7983V14.4681H31.7683V25.5319C30.4083 26.0426 28.0283 26.7234 25.4783 26.7234C22.5883 26.7234 20.5483 26.0426 18.8483 24.8511V26.5532ZM14.5983 9.02128C14.4283 9.02128 13.7483 8.85106 12.7283 8.85106C10.8583 8.85106 9.66828 9.87234 9.66828 11.7447C9.66828 13.617 10.8583 14.8085 13.0683 14.8085H14.5983V9.02128Z" fill="#505155"/>
</svg>
