<svg width="62" height="60" viewBox="0 0 62 60" fill="none" xmlns="http://www.w3.org/2000/svg">
<g clip-path="url(#clip0_1402_34178)">
<path d="M3.42972 30.1455C3.27327 30.1455 3.0662 30.2063 2.84145 30.504C2.69965 30.6921 2.47599 31.0365 2.57081 31.2324C2.78454 31.6747 3.76939 32.0544 5.03675 32.3181C5.01435 31.9392 4.9188 31.6355 4.84518 31.4521C4.53264 30.6731 3.94291 30.2085 3.52187 30.1522C3.49366 30.1482 3.46278 30.1455 3.42972 30.1455ZM1.12459 38.0729C1.05315 38.0729 0.984487 38.0713 0.918613 38.0681C0.40542 38.0448 0 37.6245 0 37.1094V37.1049C0 36.5825 0.416803 36.1633 0.937382 36.1455C1.82657 36.1151 3.19601 35.7918 4.35851 34.3301C4.42365 34.2482 4.48299 34.1664 4.53712 34.0853C2.56984 33.6615 1.38446 32.9874 0.923335 32.0345C0.650028 31.4697 0.507743 30.5535 1.38131 29.3961C1.98363 28.5976 2.85199 28.2093 3.76418 28.3316C4.92183 28.4865 6.013 29.4423 6.54424 30.7667C6.78509 31.3671 6.89565 31.9857 6.87966 32.5987C7.43149 32.6562 7.99251 32.6924 8.53465 32.7042C9.03512 32.7151 9.46282 33.1089 9.46888 33.611C9.47517 34.1322 9.05462 34.5487 8.53573 34.5413C8.48766 34.5404 7.60283 34.5217 6.45899 34.3922C6.2874 34.7677 6.06422 35.1309 5.79043 35.4752C4.05541 37.6568 2.24967 38.0729 1.12459 38.0729Z" fill="#E8679C"/>
<path d="M60.2335 32.8253L57.6566 31.9976C57.0398 31.7994 56.5609 31.3111 56.3666 30.6917C53.4011 21.2344 42.3891 16.8913 31.3048 16.8913C18.3368 16.8913 7.82422 22.8343 7.82422 35.9586C7.82422 43.5226 11.5235 48.8205 17.2388 51.8802C17.3794 51.9555 17.4795 52.0892 17.5096 52.2461L18.79 58.9161C18.9086 59.5446 19.4562 59.9994 20.0939 59.9994H24.4177C25.0554 59.9994 25.6029 59.5446 25.7215 58.9161L26.4214 55.2078C26.473 54.9342 26.7273 54.7498 27.0031 54.782C28.3977 54.9444 29.8354 55.026 31.3048 55.026C33.2688 55.026 35.2304 54.8804 37.1456 54.5901C37.427 54.5475 37.6922 54.733 37.7452 55.0135L38.4818 58.9161C38.6004 59.5445 39.148 59.9994 39.7856 59.9994H44.1095C44.7472 59.9994 45.2946 59.5445 45.4133 58.9161L46.7433 51.854C46.7733 51.6946 46.8754 51.5587 47.0191 51.484C50.4132 49.7141 53.2212 47.2794 55.012 44.1753C55.2507 43.7617 55.628 43.4464 56.0819 43.3007L60.2339 41.9669C61.2864 41.6288 62.0006 40.6473 62.0006 39.5389V35.2533C62.0003 34.1449 61.2861 33.1634 60.2335 32.8253Z" fill="#FF7BAC"/>
<path d="M61.6767 34.0121C61.5647 33.8107 61.4269 33.6248 61.2654 33.4607C61.2619 33.4572 61.2588 33.4532 61.2553 33.4499C60.9756 33.1694 60.6284 32.952 60.2338 32.8254L58.3233 32.2117V34.4654C58.3233 37.2656 56.5443 39.7545 53.9002 40.6536C52.6979 41.04 51.6583 41.8041 50.8965 42.8139C49.9636 44.0503 48.8554 45.1616 47.6063 46.1477C46.1337 47.3103 45.1403 48.9739 44.8564 50.8318C44.6539 52.1565 44.4971 53.5701 44.3971 54.5718C44.3202 55.3422 43.6744 55.9289 42.9025 55.9289H39.7856C39.148 55.9289 38.6005 55.474 38.4818 54.8456L37.7452 50.943C37.6923 50.6624 37.4271 50.4767 37.1457 50.5196C35.2305 50.8097 33.269 50.9553 31.3049 50.9553C29.8354 50.9553 28.3978 50.8739 27.0032 50.7115C26.7273 50.6793 26.4732 50.8638 26.4214 51.1374L25.7215 54.8457C25.603 55.4741 25.0554 55.929 24.4177 55.929H20.0939C19.4562 55.929 18.9087 55.4741 18.79 54.8457L17.5096 48.1758C17.4795 48.0189 17.3794 47.885 17.2388 47.8097C12.0453 45.0293 8.51723 40.4003 7.91613 33.9027V33.903C7.90184 34.0625 7.88925 34.223 7.87823 34.3848C7.87799 34.3881 7.87786 34.3912 7.87762 34.3944C7.87653 34.4103 7.87556 34.4265 7.8746 34.4425C7.86503 34.5877 7.85667 34.7341 7.84977 34.8813C7.84698 34.9423 7.84505 35.0043 7.84275 35.0657C7.83839 35.1779 7.83403 35.29 7.83124 35.4036C7.82701 35.5874 7.82422 35.7723 7.82422 35.9588C7.82422 36.9044 7.88198 37.8146 7.99435 38.6893C8.13192 39.761 8.35219 40.779 8.64741 41.7447C8.66352 41.7974 8.68035 41.8498 8.69694 41.9023C8.73799 42.0321 8.78061 42.1615 8.82469 42.2904C8.84225 42.3418 8.85969 42.3934 8.87773 42.4444C8.99919 42.7882 9.13057 43.125 9.27164 43.4546C9.28666 43.4896 9.30156 43.5247 9.31669 43.5593C9.3862 43.7188 9.45776 43.8768 9.53187 44.0331C9.5441 44.0589 9.55694 44.0844 9.56929 44.1101C9.63832 44.2539 9.70964 44.3965 9.78278 44.5382C9.79537 44.5625 9.8076 44.587 9.8202 44.6112C9.89988 44.7632 9.98198 44.9136 10.066 45.0622C10.0843 45.0947 10.1028 45.1267 10.1212 45.159C10.3933 45.6329 10.6876 46.0899 11.0029 46.5296C11.0331 46.5718 11.0638 46.6134 11.0943 46.655C11.1709 46.7596 11.2486 46.8632 11.3276 46.9661C11.3587 47.0065 11.3896 47.0471 11.4209 47.0872C11.5277 47.2232 11.6359 47.3582 11.7468 47.4908C11.7478 47.4922 11.7488 47.4934 11.7498 47.4946C11.8609 47.6272 11.9747 47.7578 12.0898 47.887C12.1247 47.9261 12.1603 47.9648 12.1956 48.0037C12.2815 48.0983 12.3687 48.1922 12.4569 48.2847C12.4925 48.3222 12.5278 48.3599 12.5638 48.3968C12.6845 48.5216 12.8067 48.6452 12.9314 48.7662C12.9317 48.7666 12.932 48.767 12.9323 48.7672C13.0713 48.9021 13.2127 49.0351 13.3566 49.1657C13.6442 49.4271 13.9414 49.6796 14.2476 49.9233C14.5538 50.1669 14.8692 50.4021 15.1933 50.6282C15.3554 50.7415 15.5196 50.8524 15.6859 50.9609C15.8357 51.0588 15.9877 51.1544 16.1409 51.2489C16.185 51.276 16.2294 51.3027 16.2737 51.3295C16.3895 51.3996 16.5059 51.4683 16.6228 51.5363C16.6692 51.563 16.7155 51.5901 16.7621 51.6167C16.9196 51.7062 17.0782 51.7948 17.2388 51.8807C17.274 51.8996 17.3065 51.922 17.3362 51.9475C17.3628 51.9707 17.3862 51.997 17.4076 52.0244C17.4141 52.0327 17.4195 52.0413 17.4253 52.0498C17.44 52.0713 17.4531 52.0936 17.4644 52.1171C17.469 52.1263 17.4738 52.1354 17.4778 52.145C17.4913 52.1778 17.5027 52.2113 17.5095 52.2466L18.7899 58.9166C18.8047 58.9953 18.8263 59.0711 18.8539 59.1436C18.8677 59.1799 18.8829 59.2154 18.8996 59.25C18.9163 59.2847 18.9345 59.3183 18.954 59.351C18.9735 59.3839 18.9943 59.4157 19.0165 59.4465C19.0386 59.4773 19.0621 59.5073 19.0868 59.5361C19.1148 59.5686 19.1446 59.5994 19.1755 59.629C19.1853 59.6385 19.1956 59.6472 19.2055 59.6563C19.2278 59.6765 19.2506 59.6958 19.2741 59.7145C19.2859 59.7238 19.2979 59.7329 19.31 59.7419C19.3342 59.7597 19.3591 59.7764 19.3844 59.7925C19.3958 59.7999 19.407 59.8073 19.4186 59.8143C19.4553 59.8362 19.493 59.8566 19.5319 59.8749C19.5325 59.8752 19.5329 59.8754 19.5336 59.8756C19.5724 59.8937 19.6125 59.9096 19.6532 59.9239C19.666 59.9283 19.6792 59.9322 19.6922 59.9364C19.7211 59.9456 19.7506 59.954 19.7803 59.9613C19.7954 59.9649 19.8105 59.9682 19.8256 59.9715C19.8558 59.9777 19.8863 59.9826 19.9171 59.9868C19.931 59.9886 19.9448 59.9909 19.9587 59.9923C20.003 59.9968 20.0478 59.9996 20.0931 59.9998H20.0939H24.4177C24.617 59.9998 24.8074 59.9554 24.9787 59.8752C25.0473 59.843 25.1128 59.8052 25.1744 59.7621C25.2362 59.7192 25.2942 59.6709 25.3478 59.6182C25.4282 59.5389 25.4988 59.4493 25.5573 59.3509C25.6353 59.2199 25.6917 59.0736 25.7214 58.9165L26.4213 55.2083V55.208C26.4271 55.1772 26.4363 55.148 26.447 55.1197C26.4501 55.1111 26.4539 55.1033 26.4575 55.0949C26.4665 55.0747 26.4764 55.055 26.4877 55.0363C26.4922 55.0288 26.4964 55.0212 26.5012 55.0139C26.5176 54.9894 26.5352 54.9661 26.5551 54.9448C26.6094 54.8874 26.6771 54.8447 26.7512 54.8161C26.7583 54.8132 26.7654 54.8107 26.7726 54.8081C26.7904 54.8022 26.8082 54.7969 26.8267 54.7928C26.8408 54.7898 26.8551 54.7876 26.8695 54.7856C26.8834 54.7837 26.897 54.7813 26.9111 54.7805C26.9413 54.7787 26.9719 54.7788 27.0029 54.7824C27.2353 54.8096 27.4694 54.8334 27.7042 54.8561C27.7629 54.8618 27.8218 54.8672 27.8806 54.8725C28.1153 54.8938 28.3508 54.9139 28.5877 54.9309C28.5889 54.931 28.59 54.931 28.5912 54.9311C28.8281 54.948 29.0664 54.9618 29.3053 54.9741C29.3655 54.9774 29.4256 54.9802 29.486 54.9832C29.726 54.9944 29.9666 55.0042 30.2086 55.0112C30.5718 55.0214 30.9373 55.0265 31.3045 55.0265C31.7956 55.0265 32.2863 55.0173 32.7764 54.9991C33.0273 54.9898 33.2779 54.9781 33.5284 54.9639C33.554 54.9626 33.5793 54.9605 33.6048 54.9589C33.8322 54.9458 34.0595 54.9311 34.2863 54.9138C34.2917 54.9134 34.2969 54.9128 34.3022 54.9125C34.7996 54.8745 35.2954 54.8272 35.7888 54.7706C35.7904 54.7705 35.7919 54.7702 35.7933 54.77C36.019 54.744 36.2442 54.7162 36.4689 54.6864C36.5775 54.6721 36.6857 54.6557 36.7939 54.6404C36.9131 54.6236 37.0325 54.6078 37.1514 54.5896C37.3922 54.5532 37.6195 54.6891 37.7112 54.9056C37.7124 54.9083 37.7142 54.9108 37.7154 54.9136C37.7281 54.9456 37.7382 54.979 37.7449 55.0139L38.1131 56.9654L38.4813 58.9166C38.5999 59.5451 39.1475 59.9999 39.7852 59.9999H44.109H44.1098C44.1552 59.9999 44.1998 59.9971 44.2442 59.9925C44.2582 59.991 44.2719 59.9886 44.2858 59.9869C44.3166 59.9828 44.3471 59.9778 44.3773 59.9716C44.3924 59.9683 44.4075 59.965 44.4224 59.9614C44.4522 59.954 44.4816 59.9457 44.5106 59.9364C44.5235 59.9322 44.5367 59.9283 44.5496 59.9239C44.5904 59.9095 44.6306 59.8935 44.6697 59.8754C44.6699 59.8753 44.6701 59.8752 44.6703 59.8752C44.7093 59.8567 44.7469 59.8362 44.784 59.8143C44.7956 59.8073 44.8068 59.7999 44.8181 59.7925C44.8437 59.7763 44.8684 59.7597 44.8927 59.7417C44.9049 59.7329 44.9167 59.7238 44.9283 59.7146C44.9521 59.6959 44.9748 59.6765 44.9972 59.6563C45.0073 59.6472 45.0175 59.6386 45.0273 59.6291C45.0582 59.5995 45.0879 59.5686 45.1158 59.5362C45.1268 59.5233 45.1366 59.5097 45.147 59.4965C45.1836 59.4504 45.2182 59.4023 45.2486 59.3511C45.2875 59.2857 45.3212 59.2165 45.3488 59.1437C45.3764 59.0712 45.3977 58.9954 45.4126 58.9167L45.7042 57.3693L46.007 55.7611L46.197 54.7524L46.7427 51.8546L46.7916 51.5946C46.881 51.5502 46.9173 51.5322 47.0068 51.4876C47.0103 51.4888 47.0122 51.4882 47.0142 51.4873C47.0157 51.4865 47.0168 51.4852 47.0185 51.4845C47.1223 51.4304 47.2237 51.3737 47.3262 51.3185C47.4335 51.2604 47.5419 51.2038 47.648 51.1448C47.7401 51.0933 47.8296 51.0396 47.9207 50.9872C48.0352 50.9213 48.1507 50.8566 48.2636 50.7891C48.3567 50.7335 48.4473 50.6757 48.5392 50.6189C48.6476 50.552 48.7572 50.4863 48.8639 50.4182C48.9598 50.3569 49.0531 50.293 49.1477 50.2306C49.2481 50.1643 49.3498 50.0991 49.4489 50.0313C49.5424 49.9674 49.6333 49.9009 49.7254 49.8356C49.8227 49.7667 49.9214 49.6993 50.0173 49.6291C50.1066 49.5636 50.1932 49.4957 50.2813 49.4289C50.3772 49.3564 50.4746 49.285 50.569 49.2108C50.6545 49.1439 50.7371 49.0743 50.8212 49.0062C50.9152 48.9301 51.0106 48.855 51.1029 48.7774C51.1879 48.7059 51.2699 48.632 51.3534 48.5593C51.4418 48.4822 51.5319 48.4064 51.6186 48.3281C51.6996 48.2548 51.7777 48.1792 51.8574 48.105C51.9436 48.0245 52.0314 47.945 52.1159 47.8631C52.1932 47.7881 52.2672 47.7108 52.343 47.6346C52.4267 47.5505 52.5116 47.4679 52.5935 47.3824C52.6679 47.3045 52.7393 47.2243 52.8122 47.1453C52.8919 47.059 52.9732 46.9737 53.051 46.8862C53.122 46.8062 53.1898 46.7236 53.2592 46.6423C53.3355 46.5531 53.4133 46.4649 53.4878 46.3742C53.5555 46.2916 53.6197 46.2067 53.6858 46.1229C53.7584 46.0309 53.8327 45.94 53.9033 45.8464C53.9682 45.7604 54.0296 45.6721 54.0928 45.5849C54.1608 45.4909 54.2306 45.3985 54.2966 45.3032C54.3582 45.2139 54.4165 45.1224 54.4765 45.0322C54.5401 44.9363 54.6056 44.8416 54.6675 44.7442C54.7441 44.6233 54.8143 44.498 54.8909 44.3772C54.9364 44.3055 54.9788 44.2321 55.0216 44.1587C55.255 43.7554 55.6235 43.4485 56.0664 43.3062L56.0814 43.3013H56.0815L58.1997 42.621L60.2334 41.9676C61.2858 41.6296 62.0002 40.6481 62.0002 39.5397V35.254C62.0002 34.8752 61.9152 34.5122 61.7633 34.1838C61.7367 34.125 61.7077 34.068 61.6767 34.0121Z" fill="#E8679C"/>
<path d="M41.3774 19.2059C41.509 18.5799 41.9406 18.0594 42.5207 17.7931C44.7494 16.77 50.4273 14.3083 51.887 15.0751C53.715 16.0353 52.7575 26.4016 49.9721 27.9839C47.2817 29.5122 39.4748 28.2611 41.3774 19.2059Z" fill="#E8679C"/>
<path d="M49.8375 35.7213C48.1868 35.7213 46.8438 34.3744 46.8438 32.7189C46.8438 32.2119 47.2537 31.8008 47.7593 31.8008C48.265 31.8008 48.6748 32.2119 48.6748 32.7189C48.6748 33.3618 49.1965 33.8849 49.8374 33.8849C50.4785 33.8849 51 33.3618 51 32.7189C51 32.2119 51.4099 31.8008 51.9156 31.8008C52.4213 31.8008 52.8312 32.2119 52.8312 32.7189C52.8315 34.3744 51.4884 35.7213 49.8375 35.7213Z" fill="#E8679C"/>
<path d="M36.3818 24.5312C36.2855 24.5312 36.1877 24.5159 36.0916 24.4836C31.098 22.8094 25.5979 22.8094 20.6045 24.4836C20.1251 24.6443 19.6061 24.3849 19.446 23.9039C19.2855 23.4229 19.5444 22.9026 20.0241 22.7418C25.3919 20.942 31.3043 20.942 36.6722 22.7418C37.1519 22.9026 37.4106 23.4229 37.2503 23.9039C37.1221 24.2884 36.7648 24.5312 36.3818 24.5312Z" fill="#E8679C"/>
<path d="M28.347 -8.7738e-05C34.7431 -8.7738e-05 39.9284 5.19994 39.9284 11.6146C39.9284 18.0292 34.7431 23.2294 28.347 23.2294C21.9508 23.2294 16.7656 18.0292 16.7656 11.6146C16.7656 5.19994 21.9508 -8.7738e-05 28.347 -8.7738e-05Z" fill="#FFB125"/>
<path d="M51.1098 16.2763C49.8388 16.2763 46.7608 17.3267 43.0774 19.0178C42.8763 19.1101 42.7311 19.2844 42.6892 19.4837C42.1524 22.0386 42.4394 24.0949 43.5196 25.4301C43.6459 25.5861 43.7845 25.7331 43.9337 25.8705C44.1074 26.0306 44.3875 25.9409 44.4453 25.7116C45.7254 20.6268 51.938 16.2763 51.1098 16.2763Z" fill="#FF7BAC"/>
<path d="M36.6759 3.54793L20.3008 19.9704C24.8341 24.3629 32.0593 24.3159 36.5341 19.8281C41.009 15.3403 41.0557 8.09436 36.6759 3.54793Z" fill="#FF901D"/>
<path d="M28.925 12.2975V15.6634C29.7839 15.5038 30.3247 14.9934 30.3247 14.084C30.3247 13.0792 29.7045 12.6325 28.925 12.2975ZM28.1774 10.2237V7.32042C27.2866 7.43202 26.6504 7.83084 26.6504 8.66041C26.6504 9.56965 27.3343 9.90471 28.1774 10.2237ZM28.0819 17.2427C26.1096 17.2108 24.7734 16.142 24.7734 15.3604C24.7734 14.9775 25.1074 14.451 25.5051 14.451C26.03 14.451 26.4594 15.5677 28.0819 15.6953V11.9465C26.6504 11.4361 25.0597 10.8618 25.0597 8.81987C25.0597 6.80988 26.5708 6.01224 28.0819 5.85267V5.39009C28.0819 5.1987 28.2728 5.02322 28.5433 5.02322C28.7819 5.02322 29.0205 5.1987 29.0205 5.39009V5.82085C30.1021 5.85279 31.6293 6.18773 31.6293 6.96945C31.6293 7.27257 31.4066 7.87869 30.9293 7.87869C30.5476 7.87869 30.134 7.36827 29.0205 7.28848V10.5267C30.4044 11.0372 31.9155 11.7391 31.9155 13.9087C31.9155 15.8708 30.7385 16.9555 29.0205 17.1949V17.7372C29.0205 17.9286 28.782 18.1041 28.5433 18.1041C28.2729 18.1041 28.0819 17.9286 28.0819 17.7372V17.2427Z" fill="#DD7219"/>
</g>
<defs>
<clipPath id="clip0_1402_34178">
<rect width="62" height="60" fill="white"/>
</clipPath>
</defs>
</svg>
