<svg width="60" height="60" viewBox="0 0 60 60" fill="none" xmlns="http://www.w3.org/2000/svg">
<g clip-path="url(#clip0_1402_34090)">
<path d="M30.1172 -2.28882e-05C13.6291 -2.28882e-05 0 13.3945 0 29.8828C0 46.3711 13.6291 60 30.1172 60C46.6052 60 60 46.3711 60 29.8828C60 13.3945 46.6052 -2.28882e-05 30.1172 -2.28882e-05Z" fill="#FEDB41"/>
<path d="M60 29.8828C60 46.3711 46.6052 60 30.1172 60V0C46.6052 0 60 13.3945 60 29.8828Z" fill="#FFCC33"/>
<path d="M30.1172 7.03128C17.531 7.03128 7.03125 17.2968 7.03125 29.8828C7.03125 42.4688 17.531 52.9688 30.1172 52.9688C42.7034 52.9688 52.9687 42.4688 52.9687 29.8828C52.9687 17.2968 42.7034 7.03128 30.1172 7.03128Z" fill="#FEA832"/>
<path d="M52.9688 29.8828C52.9688 42.4688 42.7034 52.9688 30.1172 52.9688V7.03125C42.7034 7.03125 52.9688 17.2968 52.9688 29.8828Z" fill="#FE9923"/>
<path d="M35.3906 37.1484C35.3906 38.1328 34.6173 38.9063 33.6328 38.9063H31.875V31.6406H33.6328C34.6173 31.6406 35.3906 32.414 35.3906 33.3984V37.1484ZM28.3594 28.125H26.3672C25.3827 28.125 24.6094 27.3517 24.6094 26.3672V22.8516C24.6094 21.8671 25.3827 21.0938 26.3672 21.0938H28.3594V28.125ZM33.6328 28.125H31.875V21.0938H33.6328C34.6173 21.0938 35.3906 21.8671 35.3906 22.8516C35.3906 25.1718 38.9063 25.1718 38.9063 22.8516C38.9063 19.9335 36.551 17.5782 33.6328 17.5782H31.875V15.8203C31.875 14.6601 30.9961 14.0625 30.1172 14.0625C29.2383 14.0625 28.3594 14.6601 28.3594 15.8203V17.5782H26.3672C23.449 17.5782 21.0938 19.9335 21.0938 22.8516V26.3672C21.0938 29.2853 23.449 31.6406 26.3672 31.6406H28.3594V38.9063H26.3672C25.3827 38.9063 24.6094 38.1328 24.6094 37.1484C24.6094 34.8283 21.0938 34.8283 21.0938 37.1484C21.0938 40.0664 23.449 42.4219 26.3672 42.4219H28.3594V44.1797C28.3594 45.3398 29.2383 45.9375 30.1172 45.9375C30.9961 45.9375 31.875 45.3398 31.875 44.1797V42.4219H33.6328C36.551 42.4219 38.9063 40.0664 38.9063 37.1484V33.3984C38.9063 30.4804 36.551 28.125 33.6328 28.125Z" fill="#FEDB41"/>
<path d="M35.3906 37.1484C35.3906 38.1328 34.6173 38.9063 33.6328 38.9063H31.875V31.6406H33.6328C34.6173 31.6406 35.3906 32.414 35.3906 33.3984V37.1484ZM33.6328 28.125H31.875V21.0938H33.6328C34.6173 21.0938 35.3906 21.8671 35.3906 22.8516C35.3906 25.1718 38.9062 25.1718 38.9062 22.8516C38.9062 19.9335 36.551 17.5782 33.6328 17.5782H31.875V15.8203C31.875 14.6601 30.9961 14.0625 30.1172 14.0625V45.9375C30.9961 45.9375 31.875 45.3398 31.875 44.1797V42.4219H33.6328C36.551 42.4219 38.9062 40.0664 38.9062 37.1484V33.3984C38.9062 30.4804 36.551 28.125 33.6328 28.125Z" fill="#FFCC33"/>
</g>
<defs>
<clipPath id="clip0_1402_34090">
<rect width="60" height="60" fill="white"/>
</clipPath>
</defs>
</svg>
