<svg width="60" height="60" viewBox="0 0 60 60" fill="none" xmlns="http://www.w3.org/2000/svg">
<g clip-path="url(#clip0_1402_34062)">
<path d="M42.8813 11.3087L25.1772 0.705669C24.3919 0.235279 23.5061 8.39233e-05 22.6202 8.39233e-05C21.7343 8.39233e-05 20.8485 0.235279 20.0632 0.705669L2.35914 11.3087C1.62368 11.7492 1.03209 12.3629 0.625 13.0784L2.36569 32.3048H42.8746L44.6154 13.0788C44.2084 12.3631 43.6167 11.7492 42.8813 11.3087Z" fill="#FF4542"/>
<path d="M2.36741 41.1842C0.897559 40.3072 0 38.7384 0 37.047V15.4419C0 14.6004 0.222484 13.789 0.626719 13.0784L22.6218 26.223L23.2508 46.5626L22.6218 52.4513C21.7384 52.4513 20.8551 52.2174 20.0714 51.7497L2.36741 41.1842Z" fill="#D62D2D"/>
<path d="M42.8755 41.1842C44.3453 40.3072 45.2429 38.7384 45.2429 37.047V15.4419C45.2429 14.6004 45.0206 13.7894 44.6162 13.0788L22.6211 26.223V52.4513C23.5045 52.4513 24.3876 52.2174 25.1713 51.7497L42.8755 41.1842Z" fill="#EF4545"/>
<path d="M30.495 27.0968H56.0674C58.2402 27.0968 60.0016 28.8299 60.0016 30.9677V56.1289C60.0016 56.8341 59.8101 57.495 59.4753 58.0644L56.0674 58.9453H31.3912C29.2184 58.9453 27.457 57.2122 27.457 55.0744V30.9677L28.5253 27.6162C29.1045 27.2859 29.7774 27.0968 30.495 27.0968Z" fill="#ECEAEC"/>
<path d="M9.56513 29.9556C10.4979 29.5645 11.8236 30.5626 12.5261 32.1849C13.2287 33.8072 13.042 35.4395 12.1093 35.8306C11.1765 36.2216 9.85074 35.2234 9.14827 33.6011C8.44568 31.9789 8.63232 30.3467 9.56513 29.9556Z" fill="#FF9A9F"/>
<path d="M22.6457 10.5299C24.4348 10.5299 25.8852 11.4301 25.8852 12.5404C25.8852 13.6509 24.4348 14.551 22.6457 14.551C20.8567 14.551 19.4062 13.6509 19.4062 12.5404C19.4062 11.4301 20.8567 10.5299 22.6457 10.5299Z" fill="white"/>
<path d="M32.7082 10.5299C34.4973 10.5299 35.9477 11.4301 35.9477 12.5404C35.9477 13.6509 34.4973 14.551 32.7082 14.551C30.9192 14.551 29.4688 13.6509 29.4688 12.5404C29.4688 11.4301 30.9192 10.5299 32.7082 10.5299Z" fill="white"/>
<path d="M12.5832 10.5299C14.3724 10.5299 15.8227 11.4301 15.8227 12.5404C15.8227 13.6509 14.3724 14.551 12.5832 14.551C10.7942 14.551 9.34375 13.6509 9.34375 12.5404C9.34375 11.4301 10.7942 10.5299 12.5832 10.5299Z" fill="white"/>
<path d="M43.2788 40.6453C44.9085 40.6453 46.2293 41.9451 46.2293 43.5483C46.2293 45.1518 44.9085 46.4517 43.2788 46.4517C41.6491 46.4517 40.3281 45.1518 40.3281 43.5483C40.3281 41.9451 41.6491 40.6453 43.2788 40.6453Z" fill="#D62D2D"/>
<path d="M34.4271 31.9356C36.0568 31.9356 37.3778 33.2354 37.3778 34.8388C37.3778 36.4421 36.0568 37.7419 34.4271 37.7419C32.7975 37.7419 31.4766 36.4421 31.4766 34.8388C31.4766 33.2354 32.7975 31.9356 34.4271 31.9356Z" fill="#D62D2D"/>
<path d="M52.1303 49.355C53.7599 49.355 55.0809 50.6548 55.0809 52.2581C55.0809 53.8615 53.7599 55.1614 52.1303 55.1614C50.5007 55.1614 49.1797 53.8615 49.1797 52.2581C49.1797 50.6548 50.5007 49.355 52.1303 49.355Z" fill="#D62D2D"/>
<path d="M34.4242 58.0645C31.1649 58.0645 28.5228 55.4648 28.5228 52.2581L28.5232 27.6163C27.3538 28.2873 26.5586 29.5399 26.5586 30.9679V56.1291C26.5586 58.267 28.3201 60.0001 30.4928 60.0001H56.0653C57.5178 60.0001 58.7919 59.2167 59.4733 58.0645H34.4242Z" fill="#DAD8DB"/>
</g>
<defs>
<clipPath id="clip0_1402_34062">
<rect width="60" height="60" fill="white"/>
</clipPath>
</defs>
</svg>
