<svg width="65" height="60" viewBox="0 0 65 60" fill="none" xmlns="http://www.w3.org/2000/svg">
<g clip-path="url(#clip0_1402_33877)">
<path d="M35.3372 10.7925C35.7146 10.314 44.6598 -0.915831 51.7215 0.0601425C54.2254 0.406361 56.1537 2.16886 57.4528 5.29856C59.2449 9.61632 59.3938 13.1261 57.8953 15.73C56.0299 18.972 52.3321 19.4949 52.1757 19.5157C52.1343 19.5213 52.0926 19.5239 52.0509 19.5239H36.0859C35.5591 19.5239 35.132 19.0962 35.132 18.5686V11.3847C35.1319 11.1698 35.2042 10.9613 35.3372 10.7925Z" fill="#FF3D43"/>
<path d="M7.54655 5.29856C8.84553 2.16886 10.7738 0.406364 13.2777 0.0601444C20.338 -0.916082 29.2847 10.3141 29.662 10.7925C29.795 10.9613 29.8672 11.1698 29.8672 11.3847V18.5685C29.8672 19.0962 29.4401 19.5239 28.9134 19.5239H12.9484C12.9068 19.5239 12.865 19.5213 12.8236 19.5157C12.6672 19.4949 8.96944 18.972 7.10399 15.7299C5.60543 13.1259 5.75435 9.61619 7.54655 5.29856Z" fill="#FF3D43"/>
<path d="M36.0868 15.1291H52.0518C52.0934 15.1291 52.1352 15.1265 52.1766 15.121C52.333 15.1001 56.0307 14.5773 57.8962 11.3352C58.256 10.7102 58.5195 10.0323 58.6895 9.3043C59.1636 11.833 58.9003 13.9852 57.8962 15.73C56.0307 18.972 52.333 19.4949 52.1766 19.5157C52.1352 19.5213 52.0934 19.5239 52.0518 19.5239H36.0868C35.56 19.5239 35.1329 19.0962 35.1329 18.5686V14.1737C35.1329 14.7014 35.56 15.1291 36.0868 15.1291Z" fill="#D62D2D"/>
<path d="M7.10382 11.3352C8.96927 14.5772 12.667 15.1001 12.8236 15.121C12.8648 15.1265 12.9066 15.1291 12.9482 15.1291H28.9133C29.44 15.1291 29.8672 14.7014 29.8672 14.1738V18.5686C29.8672 19.0962 29.44 19.5239 28.9133 19.5239H12.9482C12.9066 19.5239 12.8648 19.5213 12.8236 19.5157C12.667 19.4949 8.96927 18.972 7.10382 15.7299C6.09974 13.9851 5.83657 11.833 6.31049 9.30432C6.48035 10.0322 6.74416 10.71 7.10382 11.3352Z" fill="#D62D2D"/>
<path d="M28.9121 10.4293H36.0851C36.612 10.4293 37.0391 10.857 37.0391 11.3846V18.5685C37.0391 19.0962 36.612 19.5239 36.0851 19.5239H28.9121C28.3854 19.5239 27.9582 19.0962 27.9582 18.5685V11.3846C27.9582 10.857 28.3854 10.4293 28.9121 10.4293Z" fill="#D62D2D"/>
<path d="M37.0391 15.1291V18.5685C37.0391 19.0962 36.612 19.5239 36.0851 19.5239H28.9122C28.3853 19.5239 27.9583 19.0962 27.9583 18.5685V15.1291H37.0391Z" fill="#9E1219"/>
<path d="M5.77228 27.0505H59.2258C59.7526 27.0505 60.1797 27.4782 60.1797 28.0058V55.8482C60.1797 58.1376 58.3201 60 56.0342 60H8.96389C6.67797 60 4.81823 58.1376 4.81823 55.8482V28.0058C4.81823 27.4781 5.24543 27.0505 5.77228 27.0505Z" fill="#FFD039"/>
<path d="M5.77228 27.0504H59.2258C59.7526 27.0504 60.1797 27.4781 60.1797 28.0058V32.1106H4.81823V28.0058C4.81823 27.478 5.24543 27.0504 5.77228 27.0504Z" fill="#F4B70C"/>
<path d="M0.953766 17.6131H64.0461C64.5729 17.6131 65 18.0409 65 18.5685V28.0057C65 28.5333 64.5729 28.9611 64.0461 28.9611H0.953766C0.42704 28.9611 -0.000160217 28.5333 -0.000160217 28.0057V18.5685C-0.000160217 18.0409 0.42704 17.6131 0.953766 17.6131Z" fill="#FFDF65"/>
<path d="M65 24.5664V28.0058C65 28.5335 64.5729 28.9612 64.0461 28.9612H0.953934C0.427078 28.9612 7.62939e-06 28.5335 7.62939e-06 28.0058V24.5664H65Z" fill="#FFCD2C"/>
<path d="M27.7846 17.6131H37.218C37.7448 17.6131 38.1719 18.0409 38.1719 18.5685V59.0444C38.1719 59.5722 37.7448 59.9999 37.218 59.9999H27.7846C27.2578 59.9999 26.8306 59.5722 26.8306 59.0444V18.5685C26.8306 18.0409 27.2576 17.6131 27.7846 17.6131Z" fill="#FF3D43"/>
<path d="M27.7845 17.6131H31.2188V59.9999H27.7845C27.2576 59.9999 26.8304 59.5722 26.8304 59.0444V18.5685C26.8304 18.0409 27.2575 17.6131 27.7845 17.6131Z" fill="#D62D2D"/>
</g>
<defs>
<clipPath id="clip0_1402_33877">
<rect width="65" height="60" fill="white" transform="matrix(-1 0 0 1 65 0)"/>
</clipPath>
</defs>
</svg>
