<svg width="52" height="60" viewBox="0 0 52 60" fill="none" xmlns="http://www.w3.org/2000/svg">
<g clip-path="url(#clip0_1402_34147)">
<path d="M4.35718 18.0895C1.95084 18.0895 0 20.0317 0 22.4278C0 24.8237 1.95084 26.7659 4.35718 26.7659C1.95084 26.7659 0 28.7077 0 31.1037C0 33.4996 1.95084 35.4419 4.35718 35.4419H10.6173V17.7749L4.35718 18.0895Z" fill="#DD9F68"/>
<path d="M18.5938 53.3959C18.9109 53.7635 19.2411 54.1196 19.5859 54.4629C23.0226 57.8848 27.7687 60 33.0127 60C43.4997 60 51.9997 51.5355 51.9997 41.0939" fill="#DD9F68"/>
<path d="M39.4548 3.5019V45.9476H31.7465C31.9998 46.4667 32.2972 46.9634 32.637 47.4316C33.0875 48.0538 33.3455 48.7939 33.3455 49.5626V49.8294C33.3455 51.7992 31.7414 53.3964 29.763 53.3964H7.87216C5.92968 53.3964 4.35547 51.8285 4.35547 49.8959V3.5019C4.35547 1.56784 5.92968 -1.14441e-05 7.87216 -1.14441e-05H35.9404C37.8801 -1.14441e-05 39.4548 1.56784 39.4548 3.5019Z" fill="#405968"/>
<path d="M10.93 53.3964H7.87216C5.92968 53.3964 4.35547 51.8285 4.35547 49.8959V3.50192C4.35547 1.56786 5.92968 0.00012207 7.87216 0.00012207H10.93C8.98747 0.00012207 7.41279 1.56786 7.41279 3.50192V49.8959C7.41279 51.8285 8.98747 53.3964 10.93 53.3964Z" fill="#273C47"/>
<path d="M4.35547 5.37194H39.4548V43.5192H4.35547V5.37194Z" fill="#6ADBBD"/>
<path d="M35.3698 5.37191L4.35547 36.2527V20.6168L19.6668 5.37191H35.3698Z" fill="#A6F7E0"/>
<path d="M39.4548 8.26131V16.0799L11.8956 43.5192H4.35547V43.2098L39.4548 8.26131Z" fill="#A6F7E0"/>
<path d="M4.35547 5.37194H7.41326V43.5192H4.35547V5.37194Z" fill="#4FBF9F"/>
<path d="M4.35547 4.5648H5.84188V44.3262H4.35547V4.5648Z" fill="#273C47"/>
<path d="M36.3984 5.37194H39.4562V43.5192H36.3984V5.37194Z" fill="#A6F7E0"/>
<path d="M37.9688 4.5648H39.4551V44.3262H37.9688V4.5648Z" fill="#405968"/>
<path d="M28.0208 19.1305C26.2379 20.9056 26.2379 23.7836 28.0208 25.5588L34.9102 32.4189C34.3052 32.8625 33.7356 33.377 33.2137 33.9629C29.7237 37.886 29.7858 44.4384 33.3471 48.2979C37.4822 52.7784 44.4631 52.9249 48.7843 48.7373C50.9388 46.6494 52.0036 43.8758 52.0003 41.094C51.9967 38.3002 50.9167 35.4978 48.7816 33.3724L34.4776 19.1305C32.6947 17.3548 29.8037 17.3548 28.0208 19.1305Z" fill="#FFC994"/>
<path d="M34.9105 32.4193L28.021 25.5583C27.1296 24.6708 26.6836 23.5076 26.6836 22.3444C26.6836 21.1813 27.1296 20.0181 28.021 19.1305C27.8826 19.2682 27.8173 19.466 27.8173 19.7109C27.8173 20.6021 28.6891 22.1073 30.088 23.5003L34.9105 28.3026C36.052 29.4392 36.052 31.2822 34.9105 32.4193Z" fill="#DD9F68"/>
<path d="M48.9042 48.6197C48.8661 48.6604 48.8251 48.6984 48.7856 48.7378C45.5438 51.8785 40.8069 54.6498 36.8967 52.914C35.5933 52.3353 34.3818 49.4179 33.3483 48.2979C29.7865 44.4379 29.725 37.886 33.215 33.9638C33.352 33.8101 33.4913 33.66 33.6361 33.5162C33.5608 33.5935 33.4877 33.6751 33.4187 33.7611C31.5327 36.0861 33.0026 41.2364 36.6318 45.0284C40.8451 49.4313 46.3503 51.0467 48.8302 48.6924C48.8545 48.6691 48.8794 48.6444 48.9042 48.6197Z" fill="#DD9F68"/>
<path d="M24.7212 49.0884H19.0888C18.6796 49.0884 18.3477 48.7584 18.3477 48.3509C18.3477 47.9435 18.6796 47.613 19.0888 47.613H24.7212C25.13 47.613 25.4619 47.9435 25.4619 48.3509C25.4619 48.7584 25.13 49.0884 24.7212 49.0884Z" fill="#273C47"/>
<path d="M24.7212 3.66394H19.0888C18.6796 3.66394 18.3477 3.33347 18.3477 2.92601C18.3477 2.51867 18.6796 2.18808 19.0888 2.18808H24.7212C25.13 2.18808 25.4619 2.51867 25.4619 2.92601C25.4619 3.33347 25.13 3.66394 24.7212 3.66394Z" fill="#273C47"/>
</g>
<defs>
<clipPath id="clip0_1402_34147">
<rect width="52" height="60" fill="white"/>
</clipPath>
</defs>
</svg>
