<svg width="60" height="60" viewBox="0 0 60 60" fill="none" xmlns="http://www.w3.org/2000/svg">
<g clip-path="url(#clip0_1402_34106)">
<path d="M52.8516 17.5781H7.14844C6.17766 17.5781 5.39062 16.7911 5.39062 15.8203C5.39062 7.09699 12.6021 0 21.4662 0H38.5337C47.3979 0 54.6094 7.09699 54.6094 15.8203C54.6094 16.7911 53.8223 17.5781 52.8516 17.5781Z" fill="#FDF16C"/>
<path d="M38.5337 0H30V17.5781H52.8516C53.8223 17.5781 54.6094 16.7911 54.6094 15.8203C54.6094 7.09699 47.3979 0 38.5337 0Z" fill="#FAE168"/>
<path d="M26.4844 7.03125C27.4552 7.03125 28.2422 7.81816 28.2422 8.78906C28.2422 9.75984 27.4552 10.5469 26.4844 10.5469C25.5136 10.5469 24.7266 9.75984 24.7266 8.78906C24.7266 7.81816 25.5136 7.03125 26.4844 7.03125Z" fill="#ED6D7D"/>
<path d="M19.4531 7.03125C20.4239 7.03125 21.2109 7.81816 21.2109 8.78906C21.2109 9.75984 20.4239 10.5469 19.4531 10.5469C18.4823 10.5469 17.6953 9.75984 17.6953 8.78906C17.6953 7.81816 18.4823 7.03125 19.4531 7.03125Z" fill="#ED6D7D"/>
<path d="M33.5156 7.03125C34.4864 7.03125 35.2734 7.81816 35.2734 8.78906C35.2734 9.75984 34.4864 10.5469 33.5156 10.5469C32.5448 10.5469 31.7578 9.75984 31.7578 8.78906C31.7578 7.81816 32.5448 7.03125 33.5156 7.03125Z" fill="#D44854"/>
<path d="M40.5469 7.03125C41.5177 7.03125 42.3047 7.81816 42.3047 8.78906C42.3047 9.75984 41.5177 10.5469 40.5469 10.5469C39.5761 10.5469 38.7891 9.75984 38.7891 8.78906C38.7891 7.81816 39.5761 7.03125 40.5469 7.03125Z" fill="#D44854"/>
<path d="M53.5547 60H6.44531C2.89137 60 0 57.1086 0 53.5547V20.5078C0 16.9539 2.89137 14.0625 6.44531 14.0625H53.5547C57.1086 14.0625 60 16.9539 60 20.5078V53.5547C60 57.1086 57.1086 60 53.5547 60Z" fill="#ED6D7D"/>
<path d="M53.5547 14.0625H30V60H53.5547C57.1086 60 60 57.1086 60 53.5547V20.5078C60 16.9539 57.1086 14.0625 53.5547 14.0625Z" fill="#D44854"/>
<path d="M8.90625 22.9746H51.0938V44.0684H8.90625V22.9746Z" fill="white"/>
<path d="M30 22.9746H51.0937V44.0684H30V22.9746Z" fill="#E4DFD9"/>
<path d="M22.9688 22.3057C21.998 22.3057 21.2109 23.023 21.2109 23.908V43.135C21.2109 44.0199 21.998 44.7373 22.9688 44.7373C23.9395 44.7373 24.7266 44.02 24.7266 43.135V23.908C24.7266 23.0232 23.9395 22.3057 22.9688 22.3057Z" fill="#D44854"/>
<path d="M37.0312 22.3057C36.0605 22.3057 35.2734 23.023 35.2734 23.908V43.135C35.2734 44.0199 36.0605 44.7373 37.0312 44.7373C38.002 44.7373 38.7891 44.02 38.7891 43.135V23.908C38.7891 23.0232 38.002 22.3057 37.0312 22.3057Z" fill="#AE2318"/>
<path d="M10.6641 42.3106H49.3359V24.7324H10.6641V42.3106ZM51.0938 45.8262H8.90625C7.93547 45.8262 7.14844 45.0391 7.14844 44.0684V22.9746C7.14844 22.0039 7.93547 21.2168 8.90625 21.2168H51.0938C52.0645 21.2168 52.8516 22.0039 52.8516 22.9746V44.0684C52.8516 45.0391 52.0645 45.8262 51.0938 45.8262Z" fill="#D44854"/>
<path d="M51.0937 21.2168H30V24.7324H49.3359V42.3105H30V45.8262H51.0937C52.0645 45.8262 52.8516 45.0391 52.8516 44.0684V22.9746C52.8516 22.0038 52.0645 21.2168 51.0937 21.2168Z" fill="#AE2318"/>
<path d="M18.2008 30.5232C18.1244 30.3565 17.958 30.2498 17.7747 30.2498H13.7383C13.4794 30.2498 13.2695 30.4597 13.2695 30.7185V31.7358C13.2695 31.9947 13.4794 32.2046 13.7383 32.2046H15.9256L13.8092 36.158C13.7314 36.3032 13.7356 36.4786 13.8203 36.62C13.905 36.7613 14.0576 36.8479 14.2225 36.8479H15.6172C15.7925 36.8479 15.9531 36.75 16.0335 36.5944L18.5522 31.7213C18.6184 31.5932 18.6221 31.4417 18.562 31.3107L18.2008 30.5232Z" fill="#5A5555"/>
<path d="M32.2635 30.5232C32.1871 30.3566 32.0207 30.2498 31.8372 30.2498H27.8008C27.5419 30.2498 27.332 30.4597 27.332 30.7185V31.7358C27.332 31.9947 27.5419 32.2046 27.8008 32.2046H29.9881L27.8716 36.158C27.7938 36.3032 27.7981 36.4786 27.8828 36.62C27.9675 36.7613 28.1201 36.8479 28.285 36.8479H29.6797C29.855 36.8479 30.0156 36.75 30.096 36.5944L32.6147 31.7213C32.6808 31.5932 32.6845 31.4418 32.6245 31.3107L32.2635 30.5232Z" fill="#5A5555"/>
<path d="M32.6248 31.3107L32.2638 30.5231C32.1874 30.3566 32.021 30.2497 31.8375 30.2497H30V36.7202C30.0383 36.6844 30.0714 36.6425 30.0964 36.5944L32.6151 31.7212C32.6811 31.5933 32.6848 31.4419 32.6248 31.3107Z" fill="#453F3F"/>
<path d="M46.6867 31.3107L46.3258 30.523C46.2494 30.3565 46.083 30.2496 45.8995 30.2496H41.8633C41.6044 30.2496 41.3945 30.4595 41.3945 30.7184V31.7357C41.3945 31.9946 41.6044 32.2045 41.8633 32.2045H44.0504L41.9339 36.1579C41.8561 36.3032 41.8604 36.4786 41.9452 36.62C42.0299 36.7613 42.1824 36.8478 42.3474 36.8478H43.7419C43.9171 36.8478 44.0777 36.7499 44.1584 36.5943L46.677 31.7212C46.7431 31.5932 46.7467 31.4418 46.6867 31.3107Z" fill="#453F3F"/>
<path d="M51.0937 53.0859H8.90625C7.93547 53.0859 7.14844 52.2989 7.14844 51.3281C7.14844 50.3573 7.93547 49.5703 8.90625 49.5703H51.0937C52.0645 49.5703 52.8515 50.3573 52.8515 51.3281C52.8515 52.2989 52.0645 53.0859 51.0937 53.0859Z" fill="#D44854"/>
<path d="M51.0937 49.5703H30V53.0859H51.0937C52.0645 53.0859 52.8516 52.2989 52.8516 51.3281C52.8516 50.3573 52.0645 49.5703 51.0937 49.5703Z" fill="#AE2318"/>
</g>
<defs>
<clipPath id="clip0_1402_34106">
<rect width="60" height="60" fill="white"/>
</clipPath>
</defs>
</svg>
