<svg width="534" height="72" viewBox="0 0 534 72" fill="none" xmlns="http://www.w3.org/2000/svg">
<path d="M533.092 34.8693L516.603 54.7158L532.284 72H416.523V35.269H532.284C532.526 35.269 532.779 35.269 533.015 35.269H533.092V34.8693V34.8693Z" fill="#8557C3"/>
<path d="M416 56.5566L416.486 71.7348L492.302 56.5566H416Z" fill="#7249B2"/>
<path d="M0 34.8693L16.7997 54.7158L1.43644 72H116.568V35.269H1.43644C1.19042 35.269 0.940046 35.269 0.702006 35.269H0V34.8693Z" fill="#8557C3"/>
<path d="M491 0L195.228 1.52588e-05H123.832H43.7386C39.2792 1.52588e-05 36 3.40469 36 7.35342V49.6849C36 53.6318 39.2792 56.8178 43.7386 56.8178H123.832H195.228L491 56.8178C495.457 56.8178 498.531 53.6318 498.531 49.6849V7.3534C498.531 3.40468 495.457 0 491 0Z" fill="#9768D3"/>
<path d="M118.274 56.5566L117.79 71.7348L41.9727 56.5566H118.274Z" fill="#7249B2"/>
<path d="M69.6694 32.2832L71.8706 20.6484H75.2285L71.6011 37H68.2095L65.5479 26.0615L62.8862 37H59.4946L55.8672 20.6484H59.2251L61.4375 32.2607L64.1328 20.6484H66.9854L69.6694 32.2832ZM80.0127 26.1738C80.8737 25.1406 81.9556 24.624 83.2583 24.624C85.8937 24.624 87.2301 26.1551 87.2676 29.2173V37H84.022V29.3071C84.022 28.6108 83.8722 28.098 83.5728 27.7686C83.2733 27.4316 82.7754 27.2632 82.0791 27.2632C81.1283 27.2632 80.4395 27.63 80.0127 28.3638V37H76.7671V19.75H80.0127V26.1738ZM96.7573 37C96.6076 36.708 96.499 36.3449 96.4316 35.9106C95.6455 36.7866 94.6235 37.2246 93.3657 37.2246C92.1753 37.2246 91.187 36.8802 90.4009 36.1914C89.6222 35.5026 89.2329 34.6341 89.2329 33.5859C89.2329 32.2982 89.7083 31.3099 90.6592 30.6211C91.6175 29.9323 92.9989 29.5841 94.8032 29.5767H96.2969V28.8804C96.2969 28.3188 96.1509 27.8696 95.8589 27.5327C95.5744 27.1958 95.1214 27.0273 94.5 27.0273C93.9535 27.0273 93.5229 27.1584 93.2085 27.4204C92.9015 27.6825 92.748 28.0418 92.748 28.4985H89.5024C89.5024 27.7948 89.7196 27.1434 90.1538 26.5444C90.5881 25.9455 91.202 25.4775 91.9956 25.1406C92.7892 24.7962 93.6802 24.624 94.6685 24.624C96.1659 24.624 97.3525 25.0021 98.2285 25.7583C99.112 26.507 99.5537 27.5627 99.5537 28.9253V34.1924C99.5612 35.3454 99.7222 36.2176 100.037 36.8091V37H96.7573ZM94.0732 34.7427C94.5524 34.7427 94.9941 34.6379 95.3984 34.4282C95.8027 34.2111 96.1022 33.9229 96.2969 33.5635V31.4746H95.084C93.4593 31.4746 92.5946 32.0361 92.4897 33.1592L92.4785 33.3501C92.4785 33.7544 92.6208 34.0876 92.9053 34.3496C93.1898 34.6117 93.5791 34.7427 94.0732 34.7427ZM105.933 21.8613V24.8486H108.01V27.2295H105.933V33.2939C105.933 33.7432 106.019 34.0651 106.191 34.2598C106.363 34.4544 106.693 34.5518 107.179 34.5518C107.539 34.5518 107.857 34.5256 108.134 34.4731V36.9326C107.497 37.1273 106.842 37.2246 106.168 37.2246C103.892 37.2246 102.732 36.0754 102.687 33.7769V27.2295H100.913V24.8486H102.687V21.8613H105.933ZM118.589 24.8486L118.69 26.2075C119.551 25.1519 120.716 24.624 122.183 24.624C123.748 24.624 124.822 25.2417 125.406 26.4771C126.26 25.2417 127.476 24.624 129.056 24.624C130.374 24.624 131.355 25.0096 131.999 25.7808C132.642 26.5444 132.964 27.6974 132.964 29.2397V37H129.708V29.251C129.708 28.5622 129.573 28.0605 129.303 27.7461C129.034 27.4242 128.558 27.2632 127.877 27.2632C126.904 27.2632 126.23 27.7274 125.855 28.6558L125.867 37H122.621V29.2622C122.621 28.5584 122.483 28.0493 122.206 27.7349C121.929 27.4204 121.457 27.2632 120.791 27.2632C119.87 27.2632 119.203 27.645 118.792 28.4087V37H115.546V24.8486H118.589ZM142.51 37C142.361 36.708 142.252 36.3449 142.185 35.9106C141.398 36.7866 140.376 37.2246 139.119 37.2246C137.928 37.2246 136.94 36.8802 136.154 36.1914C135.375 35.5026 134.986 34.6341 134.986 33.5859C134.986 32.2982 135.461 31.3099 136.412 30.6211C137.37 29.9323 138.752 29.5841 140.556 29.5767H142.05V28.8804C142.05 28.3188 141.904 27.8696 141.612 27.5327C141.327 27.1958 140.874 27.0273 140.253 27.0273C139.706 27.0273 139.276 27.1584 138.961 27.4204C138.654 27.6825 138.501 28.0418 138.501 28.4985H135.255C135.255 27.7948 135.472 27.1434 135.907 26.5444C136.341 25.9455 136.955 25.4775 137.749 25.1406C138.542 24.7962 139.433 24.624 140.421 24.624C141.919 24.624 143.105 25.0021 143.981 25.7583C144.865 26.507 145.307 27.5627 145.307 28.9253V34.1924C145.314 35.3454 145.475 36.2176 145.79 36.8091V37H142.51ZM139.826 34.7427C140.305 34.7427 140.747 34.6379 141.151 34.4282C141.556 34.2111 141.855 33.9229 142.05 33.5635V31.4746H140.837C139.212 31.4746 138.347 32.0361 138.243 33.1592L138.231 33.3501C138.231 33.7544 138.374 34.0876 138.658 34.3496C138.943 34.6117 139.332 34.7427 139.826 34.7427ZM152.213 32.126L151.045 33.2939V37H147.8V19.75H151.045V29.3071L151.674 28.4985L154.785 24.8486H158.682L154.291 29.9136L159.064 37H155.335L152.213 32.126ZM165.454 37.2246C163.672 37.2246 162.22 36.6781 161.097 35.585C159.981 34.4919 159.423 33.0356 159.423 31.2163V30.9019C159.423 29.6815 159.659 28.5921 160.131 27.6338C160.603 26.668 161.269 25.9268 162.13 25.4102C162.998 24.8861 163.987 24.624 165.095 24.624C166.757 24.624 168.063 25.1481 169.014 26.1963C169.972 27.2445 170.452 28.7306 170.452 30.6548V31.98H162.714C162.819 32.7736 163.133 33.41 163.657 33.8892C164.189 34.3683 164.859 34.6079 165.667 34.6079C166.918 34.6079 167.895 34.1549 168.599 33.249L170.193 35.0347C169.707 35.7235 169.048 36.2625 168.217 36.6519C167.386 37.0337 166.465 37.2246 165.454 37.2246ZM165.083 27.252C164.44 27.252 163.916 27.4691 163.511 27.9033C163.114 28.3376 162.86 28.959 162.748 29.7676H167.262V29.5093C167.247 28.7905 167.053 28.2365 166.678 27.8472C166.304 27.4504 165.772 27.252 165.083 27.252ZM178.886 33.6421C178.886 33.2453 178.687 32.9346 178.291 32.71C177.901 32.4779 177.272 32.272 176.404 32.0923C173.514 31.4858 172.069 30.258 172.069 28.4087C172.069 27.3306 172.514 26.4321 173.405 25.7134C174.304 24.9871 175.475 24.624 176.92 24.624C178.463 24.624 179.694 24.9871 180.615 25.7134C181.544 26.4396 182.008 27.383 182.008 28.5435H178.762C178.762 28.0793 178.612 27.6974 178.313 27.3979C178.014 27.091 177.546 26.9375 176.909 26.9375C176.363 26.9375 175.94 27.061 175.64 27.3081C175.341 27.5552 175.191 27.8696 175.191 28.2515C175.191 28.6108 175.359 28.9028 175.696 29.1274C176.041 29.3446 176.617 29.5355 177.426 29.7002C178.234 29.8574 178.916 30.0371 179.47 30.2393C181.184 30.8682 182.042 31.9575 182.042 33.5073C182.042 34.6154 181.566 35.5138 180.615 36.2026C179.664 36.884 178.437 37.2246 176.932 37.2246C175.913 37.2246 175.007 37.0449 174.214 36.6855C173.428 36.3187 172.81 35.8208 172.361 35.1919C171.912 34.5555 171.687 33.8704 171.687 33.1367H174.764C174.794 33.7132 175.007 34.1549 175.404 34.4619C175.801 34.7689 176.333 34.9224 176.999 34.9224C177.62 34.9224 178.088 34.8063 178.403 34.5742C178.725 34.3346 178.886 34.0239 178.886 33.6421ZM197.146 35.7646C196.345 36.738 195.237 37.2246 193.822 37.2246C192.52 37.2246 191.524 36.8503 190.835 36.1016C190.154 35.3529 189.806 34.256 189.791 32.811V24.8486H193.036V32.6987C193.036 33.964 193.613 34.5967 194.766 34.5967C195.866 34.5967 196.622 34.2148 197.034 33.4512V24.8486H200.291V37H197.236L197.146 35.7646ZM209.32 33.6421C209.32 33.2453 209.122 32.9346 208.725 32.71C208.336 32.4779 207.707 32.272 206.838 32.0923C203.948 31.4858 202.503 30.258 202.503 28.4087C202.503 27.3306 202.949 26.4321 203.84 25.7134C204.738 24.9871 205.91 24.624 207.355 24.624C208.897 24.624 210.129 24.9871 211.05 25.7134C211.978 26.4396 212.442 27.383 212.442 28.5435H209.197C209.197 28.0793 209.047 27.6974 208.748 27.3979C208.448 27.091 207.98 26.9375 207.344 26.9375C206.797 26.9375 206.374 27.061 206.075 27.3081C205.775 27.5552 205.625 27.8696 205.625 28.2515C205.625 28.6108 205.794 28.9028 206.131 29.1274C206.475 29.3446 207.052 29.5355 207.86 29.7002C208.669 29.8574 209.35 30.0371 209.904 30.2393C211.619 30.8682 212.476 31.9575 212.476 33.5073C212.476 34.6154 212.001 35.5138 211.05 36.2026C210.099 36.884 208.871 37.2246 207.366 37.2246C206.348 37.2246 205.442 37.0449 204.648 36.6855C203.862 36.3187 203.245 35.8208 202.795 35.1919C202.346 34.5555 202.122 33.8704 202.122 33.1367H205.199C205.229 33.7132 205.442 34.1549 205.839 34.4619C206.236 34.7689 206.767 34.9224 207.434 34.9224C208.055 34.9224 208.523 34.8063 208.837 34.5742C209.159 34.3346 209.32 34.0239 209.32 33.6421ZM226.885 33.6421C226.885 33.2453 226.686 32.9346 226.29 32.71C225.9 32.4779 225.271 32.272 224.403 32.0923C221.513 31.4858 220.068 30.258 220.068 28.4087C220.068 27.3306 220.513 26.4321 221.404 25.7134C222.303 24.9871 223.474 24.624 224.919 24.624C226.462 24.624 227.693 24.9871 228.614 25.7134C229.543 26.4396 230.007 27.383 230.007 28.5435H226.761C226.761 28.0793 226.611 27.6974 226.312 27.3979C226.013 27.091 225.545 26.9375 224.908 26.9375C224.362 26.9375 223.939 27.061 223.639 27.3081C223.34 27.5552 223.19 27.8696 223.19 28.2515C223.19 28.6108 223.358 28.9028 223.695 29.1274C224.04 29.3446 224.616 29.5355 225.425 29.7002C226.233 29.8574 226.915 30.0371 227.469 30.2393C229.183 30.8682 230.041 31.9575 230.041 33.5073C230.041 34.6154 229.565 35.5138 228.614 36.2026C227.663 36.884 226.436 37.2246 224.931 37.2246C223.912 37.2246 223.007 37.0449 222.213 36.6855C221.427 36.3187 220.809 35.8208 220.36 35.1919C219.911 34.5555 219.686 33.8704 219.686 33.1367H222.763C222.793 33.7132 223.007 34.1549 223.403 34.4619C223.8 34.7689 224.332 34.9224 224.998 34.9224C225.619 34.9224 226.087 34.8063 226.402 34.5742C226.724 34.3346 226.885 34.0239 226.885 33.6421ZM236.026 21.8613V24.8486H238.104V27.2295H236.026V33.2939C236.026 33.7432 236.112 34.0651 236.285 34.2598C236.457 34.4544 236.786 34.5518 237.273 34.5518C237.632 34.5518 237.951 34.5256 238.228 34.4731V36.9326C237.591 37.1273 236.936 37.2246 236.262 37.2246C233.986 37.2246 232.826 36.0754 232.781 33.7769V27.2295H231.006V24.8486H232.781V21.8613H236.026ZM246.954 37C246.804 36.708 246.695 36.3449 246.628 35.9106C245.842 36.7866 244.82 37.2246 243.562 37.2246C242.372 37.2246 241.383 36.8802 240.597 36.1914C239.819 35.5026 239.429 34.6341 239.429 33.5859C239.429 32.2982 239.905 31.3099 240.855 30.6211C241.814 29.9323 243.195 29.5841 245 29.5767H246.493V28.8804C246.493 28.3188 246.347 27.8696 246.055 27.5327C245.771 27.1958 245.318 27.0273 244.696 27.0273C244.15 27.0273 243.719 27.1584 243.405 27.4204C243.098 27.6825 242.944 28.0418 242.944 28.4985H239.699C239.699 27.7948 239.916 27.1434 240.35 26.5444C240.784 25.9455 241.398 25.4775 242.192 25.1406C242.986 24.7962 243.876 24.624 244.865 24.624C246.362 24.624 247.549 25.0021 248.425 25.7583C249.308 26.507 249.75 27.5627 249.75 28.9253V34.1924C249.757 35.3454 249.918 36.2176 250.233 36.8091V37H246.954ZM244.27 34.7427C244.749 34.7427 245.19 34.6379 245.595 34.4282C245.999 34.2111 246.299 33.9229 246.493 33.5635V31.4746H245.28C243.656 31.4746 242.791 32.0361 242.686 33.1592L242.675 33.3501C242.675 33.7544 242.817 34.0876 243.102 34.3496C243.386 34.6117 243.775 34.7427 244.27 34.7427ZM255.23 24.8486L255.332 26.2524C256.2 25.1668 257.364 24.624 258.824 24.624C260.112 24.624 261.07 25.0021 261.699 25.7583C262.328 26.5145 262.65 27.645 262.665 29.1499V37H259.419V29.2285C259.419 28.5397 259.27 28.0418 258.97 27.7349C258.671 27.4204 258.173 27.2632 257.477 27.2632C256.563 27.2632 255.878 27.6525 255.421 28.4312V37H252.176V24.8486H255.23ZM264.63 30.8345C264.63 28.9403 265.053 27.4316 265.899 26.3086C266.753 25.1855 267.917 24.624 269.392 24.624C270.575 24.624 271.552 25.0658 272.323 25.9492V19.75H275.58V37H272.649L272.492 35.7085C271.683 36.7192 270.642 37.2246 269.37 37.2246C267.94 37.2246 266.79 36.6631 265.922 35.54C265.061 34.4095 264.63 32.841 264.63 30.8345ZM267.876 31.0703C267.876 32.2083 268.074 33.0806 268.471 33.687C268.868 34.2935 269.444 34.5967 270.201 34.5967C271.204 34.5967 271.911 34.1737 272.323 33.3276V28.5322C271.919 27.6862 271.219 27.2632 270.223 27.2632C268.658 27.2632 267.876 28.5322 267.876 31.0703ZM283.318 30.812C283.318 29.6066 283.55 28.5322 284.014 27.5889C284.478 26.6455 285.145 25.9155 286.013 25.3989C286.889 24.8823 287.904 24.624 289.057 24.624C290.696 24.624 292.033 25.1257 293.066 26.1289C294.107 27.1322 294.687 28.4948 294.807 30.2168L294.829 31.0479C294.829 32.9121 294.309 34.4095 293.268 35.54C292.227 36.6631 290.831 37.2246 289.079 37.2246C287.327 37.2246 285.927 36.6631 284.879 35.54C283.838 34.417 283.318 32.8896 283.318 30.958V30.812ZM286.563 31.0479C286.563 32.2008 286.781 33.0843 287.215 33.6982C287.649 34.3047 288.271 34.6079 289.079 34.6079C289.865 34.6079 290.479 34.3084 290.921 33.7095C291.363 33.103 291.583 32.1372 291.583 30.812C291.583 29.6815 291.363 28.8055 290.921 28.1841C290.479 27.5627 289.858 27.252 289.057 27.252C288.263 27.252 287.649 27.5627 287.215 28.1841C286.781 28.798 286.563 29.7526 286.563 31.0479ZM304.105 35.7646C303.304 36.738 302.196 37.2246 300.781 37.2246C299.479 37.2246 298.483 36.8503 297.794 36.1016C297.113 35.3529 296.764 34.256 296.75 32.811V24.8486H299.995V32.6987C299.995 33.964 300.572 34.5967 301.725 34.5967C302.825 34.5967 303.581 34.2148 303.993 33.4512V24.8486H307.25V37H304.195L304.105 35.7646ZM313.584 21.8613V24.8486H315.662V27.2295H313.584V33.2939C313.584 33.7432 313.67 34.0651 313.842 34.2598C314.014 34.4544 314.344 34.5518 314.831 34.5518C315.19 34.5518 315.508 34.5256 315.785 34.4731V36.9326C315.149 37.1273 314.494 37.2246 313.82 37.2246C311.544 37.2246 310.383 36.0754 310.338 33.7769V27.2295H308.564V24.8486H310.338V21.8613H313.584ZM324.084 37V27.2295H322.276V24.8486H324.084V23.8154C324.084 22.4528 324.474 21.3971 325.252 20.6484C326.039 19.8923 327.135 19.5142 328.543 19.5142C328.992 19.5142 329.542 19.589 330.194 19.7388L330.16 22.2544C329.891 22.187 329.561 22.1533 329.172 22.1533C327.951 22.1533 327.341 22.7261 327.341 23.8716V24.8486H329.756V27.2295H327.341V37H324.084ZM338.269 27.8921C337.827 27.8322 337.438 27.8022 337.101 27.8022C335.873 27.8022 335.068 28.2178 334.686 29.0488V37H331.44V24.8486H334.506L334.596 26.2974C335.248 25.1818 336.15 24.624 337.303 24.624C337.662 24.624 337.999 24.6727 338.313 24.77L338.269 27.8921ZM338.931 30.812C338.931 29.6066 339.163 28.5322 339.627 27.5889C340.092 26.6455 340.758 25.9155 341.626 25.3989C342.502 24.8823 343.517 24.624 344.67 24.624C346.31 24.624 347.646 25.1257 348.679 26.1289C349.72 27.1322 350.3 28.4948 350.42 30.2168L350.442 31.0479C350.442 32.9121 349.922 34.4095 348.881 35.54C347.841 36.6631 346.444 37.2246 344.692 37.2246C342.94 37.2246 341.54 36.6631 340.492 35.54C339.451 34.417 338.931 32.8896 338.931 30.958V30.812ZM342.177 31.0479C342.177 32.2008 342.394 33.0843 342.828 33.6982C343.262 34.3047 343.884 34.6079 344.692 34.6079C345.479 34.6079 346.092 34.3084 346.534 33.7095C346.976 33.103 347.197 32.1372 347.197 30.812C347.197 29.6815 346.976 28.8055 346.534 28.1841C346.092 27.5627 345.471 27.252 344.67 27.252C343.876 27.252 343.262 27.5627 342.828 28.1841C342.394 28.798 342.177 29.7526 342.177 31.0479ZM355.485 24.8486L355.586 26.2075C356.447 25.1519 357.611 24.624 359.079 24.624C360.643 24.624 361.718 25.2417 362.302 26.4771C363.155 25.2417 364.372 24.624 365.952 24.624C367.269 24.624 368.25 25.0096 368.894 25.7808C369.538 26.5444 369.86 27.6974 369.86 29.2397V37H366.603V29.251C366.603 28.5622 366.468 28.0605 366.199 27.7461C365.929 27.4242 365.454 27.2632 364.772 27.2632C363.799 27.2632 363.125 27.7274 362.751 28.6558L362.762 37H359.517V29.2622C359.517 28.5584 359.378 28.0493 359.101 27.7349C358.824 27.4204 358.352 27.2632 357.686 27.2632C356.765 27.2632 356.099 27.645 355.687 28.4087V37H352.441V24.8486H355.485ZM381.978 21.8613V24.8486H384.055V27.2295H381.978V33.2939C381.978 33.7432 382.064 34.0651 382.236 34.2598C382.408 34.4544 382.737 34.5518 383.224 34.5518C383.583 34.5518 383.902 34.5256 384.179 34.4731V36.9326C383.542 37.1273 382.887 37.2246 382.213 37.2246C379.937 37.2246 378.777 36.0754 378.732 33.7769V27.2295H376.958V24.8486H378.732V21.8613H381.978ZM389.03 26.1738C389.891 25.1406 390.973 24.624 392.276 24.624C394.911 24.624 396.248 26.1551 396.285 29.2173V37H393.04V29.3071C393.04 28.6108 392.89 28.098 392.59 27.7686C392.291 27.4316 391.793 27.2632 391.097 27.2632C390.146 27.2632 389.457 27.63 389.03 28.3638V37H385.785V19.75H389.03V26.1738ZM404.326 37.2246C402.544 37.2246 401.092 36.6781 399.969 35.585C398.853 34.4919 398.295 33.0356 398.295 31.2163V30.9019C398.295 29.6815 398.531 28.5921 399.003 27.6338C399.475 26.668 400.141 25.9268 401.002 25.4102C401.87 24.8861 402.859 24.624 403.967 24.624C405.629 24.624 406.935 25.1481 407.886 26.1963C408.845 27.2445 409.324 28.7306 409.324 30.6548V31.98H401.586C401.691 32.7736 402.005 33.41 402.529 33.8892C403.061 34.3683 403.731 34.6079 404.54 34.6079C405.79 34.6079 406.767 34.1549 407.471 33.249L409.065 35.0347C408.579 35.7235 407.92 36.2625 407.089 36.6519C406.258 37.0337 405.337 37.2246 404.326 37.2246ZM403.956 27.252C403.312 27.252 402.788 27.4691 402.383 27.9033C401.986 28.3376 401.732 28.959 401.62 29.7676H406.134V29.5093C406.119 28.7905 405.925 28.2365 405.55 27.8472C405.176 27.4504 404.644 27.252 403.956 27.252ZM421.958 34.6079C422.557 34.6079 423.044 34.4432 423.418 34.1138C423.792 33.7843 423.987 33.3464 424.002 32.7998H427.045C427.038 33.6234 426.813 34.3796 426.372 35.0684C425.93 35.7497 425.323 36.2812 424.552 36.6631C423.789 37.0374 422.943 37.2246 422.014 37.2246C420.277 37.2246 418.907 36.6743 417.904 35.5737C416.901 34.4657 416.399 32.9383 416.399 30.9917V30.7783C416.399 28.9066 416.897 27.4129 417.893 26.2974C418.888 25.1818 420.255 24.624 421.992 24.624C423.512 24.624 424.728 25.0583 425.642 25.9268C426.562 26.7878 427.03 27.937 427.045 29.3745H424.002C423.987 28.7456 423.792 28.2365 423.418 27.8472C423.044 27.4504 422.549 27.252 421.936 27.252C421.179 27.252 420.607 27.529 420.217 28.083C419.835 28.6296 419.645 29.5205 419.645 30.7559V31.0928C419.645 32.3431 419.835 33.2415 420.217 33.7881C420.599 34.3346 421.179 34.6079 421.958 34.6079ZM435.727 27.8921C435.285 27.8322 434.896 27.8022 434.559 27.8022C433.331 27.8022 432.526 28.2178 432.144 29.0488V37H428.898V24.8486H431.964L432.054 26.2974C432.706 25.1818 433.608 24.624 434.761 24.624C435.12 24.624 435.457 24.6727 435.771 24.77L435.727 27.8921ZM436.389 30.812C436.389 29.6066 436.621 28.5322 437.085 27.5889C437.55 26.6455 438.216 25.9155 439.084 25.3989C439.96 24.8823 440.975 24.624 442.128 24.624C443.768 24.624 445.104 25.1257 446.137 26.1289C447.178 27.1322 447.758 28.4948 447.878 30.2168L447.9 31.0479C447.9 32.9121 447.38 34.4095 446.339 35.54C445.299 36.6631 443.902 37.2246 442.15 37.2246C440.398 37.2246 438.998 36.6631 437.95 35.54C436.91 34.417 436.389 32.8896 436.389 30.958V30.812ZM439.635 31.0479C439.635 32.2008 439.852 33.0843 440.286 33.6982C440.72 34.3047 441.342 34.6079 442.15 34.6079C442.937 34.6079 443.55 34.3084 443.992 33.7095C444.434 33.103 444.655 32.1372 444.655 30.812C444.655 29.6815 444.434 28.8055 443.992 28.1841C443.55 27.5627 442.929 27.252 442.128 27.252C441.334 27.252 440.72 27.5627 440.286 28.1841C439.852 28.798 439.635 29.7526 439.635 31.0479ZM460.467 32.5864L462.062 24.8486H465.195L462.096 37H459.378L457.076 29.3521L454.773 37H452.067L448.967 24.8486H452.101L453.684 32.5752L455.908 24.8486H458.255L460.467 32.5864ZM466.307 30.8345C466.307 28.9403 466.73 27.4316 467.576 26.3086C468.43 25.1855 469.594 24.624 471.069 24.624C472.252 24.624 473.229 25.0658 474 25.9492V19.75H477.257V37H474.326L474.168 35.7085C473.36 36.7192 472.319 37.2246 471.046 37.2246C469.616 37.2246 468.467 36.6631 467.599 35.54C466.738 34.4095 466.307 32.841 466.307 30.8345ZM469.553 31.0703C469.553 32.2083 469.751 33.0806 470.148 33.687C470.545 34.2935 471.121 34.5967 471.877 34.5967C472.881 34.5967 473.588 34.1737 474 33.3276V28.5322C473.596 27.6862 472.896 27.2632 471.9 27.2632C470.335 27.2632 469.553 28.5322 469.553 31.0703Z" fill="white"/>
</svg>
